<svg id="svg" version="1.1" viewBox="0 0 300 242.3829282750445" width="300" height="242.3829282750445" xmlns="http://www.w3.org/2000/svg"><svg xmlns="http://www.w3.org/2000/svg"><defs><clipPath id="clip-1"><rect x="0" y="0" transform="scale(0.14648,0.14645)" width="2048" height="1655" fill="none"/></clipPath><linearGradient x1="157.29346" y1="-7.68588" x2="142.55991" y2="249.92243" gradientUnits="userSpaceOnUse" id="color-1"><stop offset="0" stop-color="#000000"/><stop offset="1" stop-color="#040a1f"/></linearGradient><linearGradient x1="184.62891" y1="172.52978" x2="188.81396" y2="241.12781" gradientUnits="userSpaceOnUse" id="color-2"><stop offset="0" stop-color="#947366"/><stop offset="1" stop-color="#a08a8f"/></linearGradient><linearGradient x1="197.64404" y1="173.23423" x2="195.55664" y2="185.14101" gradientUnits="userSpaceOnUse" id="color-3"><stop offset="0" stop-color="#100000"/><stop offset="1" stop-color="#2c0700"/></linearGradient><linearGradient x1="115.90386" y1="187.52091" x2="120.95229" y2="186.92484" gradientUnits="userSpaceOnUse" id="color-4"><stop offset="0" stop-color="#805b4d"/><stop offset="1" stop-color="#99756c"/></linearGradient><linearGradient x1="111.13477" y1="191.79739" x2="109.16338" y2="195.37382" gradientUnits="userSpaceOnUse" id="color-5"><stop offset="0" stop-color="#130000"/><stop offset="1" stop-color="#2f0b00"/></linearGradient><linearGradient x1="142.08486" y1="178.01305" x2="158.25732" y2="242.51767" gradientUnits="userSpaceOnUse" id="color-6"><stop offset="0" stop-color="#937467"/><stop offset="1" stop-color="#a48c8e"/></linearGradient><linearGradient x1="147.20947" y1="189.59032" x2="161.99561" y2="192.39053" gradientUnits="userSpaceOnUse" id="color-7"><stop offset="0" stop-color="#080000"/><stop offset="1" stop-color="#330600"/></linearGradient><linearGradient x1="137.01841" y1="101.08261" x2="127.99307" y2="92.4242" gradientUnits="userSpaceOnUse" id="color-8"><stop offset="0" stop-color="#8c6e6c"/><stop offset="1" stop-color="#aa897c"/></linearGradient><linearGradient x1="164.63232" y1="103.32206" x2="167.87109" y2="96.92681" gradientUnits="userSpaceOnUse" id="color-9"><stop offset="0" stop-color="#946a67"/><stop offset="1" stop-color="#a78a7f"/></linearGradient><linearGradient x1="163.48096" y1="82.47141" x2="173.72021" y2="85.80326" gradientUnits="userSpaceOnUse" id="color-10"><stop offset="0" stop-color="#190000"/><stop offset="1" stop-color="#370000"/></linearGradient><linearGradient x1="95.27446" y1="165.08108" x2="81.97617" y2="218.04944" gradientUnits="userSpaceOnUse" id="color-11"><stop offset="0" stop-color="#130000"/><stop offset="1" stop-color="#2f0100"/></linearGradient><linearGradient x1="106.99585" y1="139.31116" x2="139.56255" y2="149.8937" gradientUnits="userSpaceOnUse" id="color-12"><stop offset="0" stop-color="#0c0000"/><stop offset="1" stop-color="#2b0000"/></linearGradient></defs><g clip-path="url(#clip-1)" fill="none" fill-rule="nonzero" stroke="none" stroke-width="1" stroke-linecap="butt" stroke-linejoin="miter" stroke-miterlimit="10" stroke-dasharray="" stroke-dashoffset="0" font-family="none" font-weight="none" font-size="none" text-anchor="none" style="mix-blend-mode: normal"><path d="M0,0h300v242.38293h-56.42725h-10.94824h-3.9917h-15.28418h-5.01709h-28.48096h-1.68457h-11.92383h-4.56152h-24.76934h-4.9957h-16.03579h-1.80176h-28.70332h-4.42412h-19.20352h-5.18877h-12.33062h-44.22773z" fill="url(#color-1)"/><path d="M107.53037,102.11761c-0.32695,-1.69346 -0.93281,-3.2286 -1.31748,-4.93275c-2.54634,-11.27688 -1.0125,-24.22687 5.91357,-33.70265c3.28521,-3.51419 6.93135,-6.84794 10.92026,-9.55106c7.49927,-5.08199 16.55962,-9.05004 25.77554,-8.99058c1.86475,0.01201 3.51563,-0.28046 5.32178,-0.00293c-0.85986,-0.00161 -1.82666,-0.15026 -2.49023,0.23755c-0.41309,0.56414 -0.30762,0.76113 -0.5127,1.41739c1.0752,-0.02548 2.02295,-0.18204 2.93408,0.35193c1.08691,0.78485 0.73389,-0.05726 1.93213,0.38884c1.05176,-0.29379 1.94678,-0.20328 2.99707,0.05917c0.56836,-0.73901 0.57568,-0.83728 0.46436,-1.76522c8.83887,2.64527 15.98145,6.86097 21.29443,14.6206c2.18701,3.19448 2.87549,4.12754 4.25391,7.90871c1.19385,3.27034 2.56934,6.48986 3.14063,10.03348c0.82764,5.54742 0.6167,11.97796 -0.04102,17.52685c-0.27393,2.3033 -1.65674,8.13396 -1.61133,10.13278c0.06738,2.989 3.09814,5.72653 1.61133,10.23134c-1.2627,3.82906 -3.48633,5.66166 -6.21826,8.39626c0.73389,1.17926 1.25684,2.25599 1.35791,3.65727c0.30176,4.13926 -2.72168,7.9525 -7.11621,6.8021c-1.33154,-0.3449 -2.45654,-1.23095 -3.10547,-2.44375c-0.68701,-1.27694 -0.65479,-2.518 -0.7002,-3.93935c-1.59082,0.75732 -4.49414,4.0155 -6.11572,5.42279c-1.78857,1.55359 -4.5,3.16152 -5.90479,4.5896c0.11426,6.83959 1.35205,15.07549 2.20459,21.90468c0.42773,3.43144 0.73389,7.16018 1.5249,10.50961l2.13721,0.0908l0.07764,0.49209c0.0835,0.53603 0.09375,0.95782 0.11279,1.49384l2.28223,-0.50966l1.62451,0.86262l0.1626,-0.18014l-0.15967,-0.08934c-0.60937,-0.3427 -0.68555,-0.26948 -1.06641,-0.91388c0.39551,0.14938 0.64453,0.2314 1.05176,0.34124l0.104,-0.15524c-0.47168,-1.14821 -0.48926,-0.45694 -1.11182,-1.32542c0.62988,-0.82454 5.04199,-0.84065 6.07471,-0.71177c0.15674,0.40861 0.37207,0.28119 0.61377,0.95049l0.20215,0.05126l0.40723,-0.35589l0.14209,0.32074c0.37207,0.25044 0.46582,0.29145 0.75586,0.65172c-0.15088,0.36321 -0.03516,0.2109 -0.39111,0.44376c-0.32227,-0.18014 -0.73975,-0.21382 -1.11475,-0.2768c0.09668,-0.43936 0.14795,-0.26215 -0.03223,-0.57703c-0.63574,0.06298 -0.57275,0.48623 -0.7251,0.49941c-0.99902,0.08934 -3.1377,-0.39836 -3.77051,0.45401c0.09375,0.45401 -0.01318,0.26362 0.3457,0.57703l0.07031,-0.17282c1.86914,1.12477 1.32129,2.07966 2.10205,2.87491c0.76172,-1.51434 0.98584,-2.21147 2.29541,-3.33478c0.71631,0.19186 0.62402,0.29584 1.20557,0.93878c0.76611,-0.54335 1.00781,-0.65905 1.95264,-0.91681c1.42822,0.40861 2.40674,0.65026 3.37646,1.87316c0.5874,-0.30609 0.90674,-0.32074 1.54102,-0.73813c-0.37207,-0.47598 -0.62988,-0.80404 -1.05762,-1.2434c4.01074,-0.08055 4.98779,0.42911 8.81689,1.23608c-0.98145,0.34563 -1.36377,0.44083 -2.18115,1.10427c0.11426,0.60925 0.05273,0.81575 0.41895,1.24047l0.34424,0.03954c1.07373,-0.68834 1.89697,-0.55946 3.05566,-0.37346c0.19189,-0.64147 0.15234,-1.16432 0.1582,-1.83362c0.52588,-0.45547 0.87305,-0.72788 1.29785,-1.2932c4.88525,1.83801 7.80762,2.75335 12.23877,5.63119c-0.75879,0.43644 -0.17432,0.66491 -1.10449,1.31077c0.67529,0.42325 1.17773,0.73667 1.80762,1.22876c0.43652,1.93467 1.08398,0.94317 2.01416,1.65933c2.48291,1.91124 4.90869,3.8503 7.16016,6.03541c1.01074,0.98125 2.5708,2.0738 3.47754,3.10484c1.34912,1.53631 2.70557,3.26155 3.96533,4.89599c3.27832,4.25159 7.20117,9.05092 9.32666,13.99523c0.40137,0.93292 0.52441,2.63033 0.74268,3.66723c0.09814,0.46719 0.38525,1.00175 0.46143,1.34299c0.57715,-0.33538 0.57568,-0.4584 1.17773,-0.43936c0.42041,0.33831 0.46289,0.45108 0.76318,0.91388c1.64355,4.22523 3.31055,8.68624 4.31396,13.1165c1.00488,4.44784 1.52783,8.88689 2.06543,13.40502h-10.94824h-3.9917h-15.28418h-5.01709h-28.48096h-1.68457h-11.92383h-4.56152h-24.76934h-4.9957h-16.03579h-1.80176h-28.70332h-4.42412h-19.20352h-5.18877h-12.33062c-0.03076,-3.15171 3.02314,-16.14519 4.55713,-18.68179c0.40576,-0.13474 0.68188,-0.13767 1.10244,-0.17428c0.3876,-0.02636 0.74561,-0.03954 1.12822,-0.11277c-1.0875,-0.37346 -0.54785,-0.26069 -0.76963,-1.23754c-0.33765,-1.48652 0.90176,-1.86144 1.5145,-2.99793c0.44224,-0.81868 0.21328,-2.20561 1.2731,-2.53514c1.11753,-0.41447 1.03242,-2.32863 1.39673,-3.37579c0.43652,-1.43819 1.55127,-2.58347 2.30215,-3.85469c1.61162,-2.72699 3.44927,-4.95604 5.53638,-7.32568c2.22598,-2.52781 4.56812,-5.30313 7.13452,-7.50728c2.38271,-2.04744 4.75898,-4.17689 7.26079,-6.05445c1.16309,-0.9256 3.023,-1.56853 4.14785,-2.41797c2.46504,-1.85998 5.0502,-2.72113 7.68662,-4.11245l0.10898,-0.39836c0.59487,-1.45723 7.78389,-3.83712 9.4377,-4.07731c-0.90967,1.49238 -0.90381,2.96425 -0.76553,4.69388c0.06108,-0.37932 0.00249,-0.44669 0.21943,-0.67516c0.04453,0.75424 0.01714,1.27269 0.50991,1.80432l0.34424,-0.01172c0.29824,-0.2065 0.49453,-0.28998 0.62666,-0.6239c-0.11953,-0.27534 -0.08174,-0.12595 0.01406,-0.49648l0.13184,0.28559c0.61948,1.33128 1.09263,1.76771 2.21045,2.73724c0.86733,0.64294 1.85376,0.88898 2.92222,0.6898c2.60054,-0.30756 3.21284,-1.14088 3.87861,-3.59254l0.10972,-0.01757c0.51167,-0.08494 0.69741,-0.15524 1.18228,-0.33685c0.22075,0.06005 0.24756,0.02929 0.3876,0.16256c0.06182,0.58728 -0.03193,0.76449 0.31992,1.09402c0.32593,-0.00439 0.65405,-0.00439 0.9791,-0.02343c1.03887,-0.19039 2.58955,-0.03954 3.26982,-0.75717c2.6833,0.9256 3.87466,1.30638 6.44048,-0.35881l0.35303,0.23872l0.42773,-0.32659l0.68379,-0.65612l-0.13564,-0.35003c1.14023,-2.18071 1.67168,-6.13353 -0.39609,-7.90271c-0.30542,0.79232 -0.71865,0.55506 -1.45342,0.79525l-0.74209,-0.6195c0.43843,-1.26976 0.97456,-0.4379 0.51416,-2.22319c2.69824,-0.06737 9.11279,0.18746 11.43721,-0.2314c0.23994,-0.40568 0.14546,-0.59314 0.1311,-1.12477c0.65962,-0.06737 1.32056,-0.18893 1.95937,-0.05858c0.07822,-1.40743 0.26338,-2.66841 0.43037,-4.05534c1.01616,-8.44752 1.98267,-16.96973 2.75713,-25.44406c-0.7686,-1.13049 -6.84023,-5.57261 -8.34946,-6.86595c-3.15937,-2.70781 -4.59404,-4.29201 -7.29434,-7.38645c-0.68013,0.22481 -0.89487,0.27182 -1.48828,0.71514c-1.30444,-1.41036 -1.83398,-4.18085 -3.56016,-4.4824l-0.10518,-1.74047c-1.27822,-0.40246 -1.82358,-0.56839 -3.08174,-1.12346c-0.48457,0.71001 -0.53145,1.04935 -1.21479,1.32703c-1.19531,-0.68263 -3.98599,-3.05827 -4.70347,-4.20179c-2.87798,-4.58785 -4.35747,-10.64493 0.53511,-14.259z" fill="#8e5143"/><path d="M88.60752,181.5968c1.59214,0.78353 3.86191,3.63355 5.35298,4.85352c2.98418,2.4414 5.83638,5.12446 8.67642,7.70499c2.43955,2.21586 3.22251,2.0987 4.84834,5.16693c-4.82725,4.72171 -6.84609,7.94079 -6.93325,15.03506c-0.05229,4.24866 1.45825,8.34207 4.06641,11.74129c0.39639,0.51699 2.6127,2.89541 2.78716,3.24398c0.78867,1.46162 0.06255,0.71909 -0.28315,2.11774c0.86704,0.30609 6.29868,3.58522 6.95039,4.23548c0.14678,2.08259 0.01846,4.55036 0.00527,6.68713h-28.70332h-4.42412h-19.20352h-5.18877h-12.33062c-0.03076,-3.15171 3.02314,-16.14519 4.55713,-18.68179c0.40576,-0.13474 0.68188,-0.13767 1.10244,-0.17428c0.3876,-0.02636 0.74561,-0.03954 1.12822,-0.11277c-1.0875,-0.37346 -0.54785,-0.26069 -0.76963,-1.23754c-0.33765,-1.48652 0.90176,-1.86144 1.5145,-2.99793c0.44224,-0.81868 0.21328,-2.20561 1.2731,-2.53514c1.11753,-0.41447 1.03242,-2.32863 1.39673,-3.37579c0.43652,-1.43819 1.55127,-2.58347 2.30215,-3.85469c1.61162,-2.72699 3.44927,-4.95604 5.53638,-7.32568c2.22598,-2.52781 4.56812,-5.30313 7.13452,-7.50728c2.38271,-2.04744 4.75898,-4.17689 7.26079,-6.05445c1.16309,-0.9256 3.023,-1.56853 4.14785,-2.41797c2.46504,-1.85998 5.0502,-2.72113 7.68662,-4.11245z" fill="#510002"/><path d="M88.99937,228.69671c4.66787,-0.63269 10.27104,1.02372 14.76079,2.27298c1.39482,0.38811 1.89419,0.56092 3.36226,0.49062c0.86704,0.30609 6.29868,3.58522 6.95039,4.23548c0.14678,2.08259 0.01846,4.55036 0.00527,6.68713h-28.70332c0.48647,-2.06794 0.95903,-4.00408 1.50557,-6.05005c0.5688,-2.12799 1.90415,-5.66195 2.11904,-7.63616z" fill="#9a7e7c"/><path d="M65.53389,225.74125c2.97246,-0.12742 4.06846,0.30609 6.95449,0.6239c3.48823,0.38225 7.51992,0.58289 10.94004,1.34885c-0.73828,2.46923 -0.73682,4.66459 -1.29478,7.1016c-0.59253,2.58932 -0.9085,4.9326 -1.18301,7.56733h-19.20352c0.9665,-4.64262 2.07964,-12.47796 3.78677,-16.64168z" fill="#9a7e7c"/><path d="M49.8873,223.52685c3.37749,0.48916 6.4311,1.00761 9.83643,1.40304c-1.32803,4.21497 -1.95718,9.10071 -2.60479,13.48704c-0.20493,1.38839 -0.51006,2.54832 -0.5606,3.966h-12.33062c-0.03076,-3.15171 3.02314,-16.14519 4.55713,-18.68179c0.40576,-0.13474 0.68188,-0.13767 1.10244,-0.17428z" fill="#9a7e7c"/><path d="M208.10449,180.68586c0.43652,1.93467 1.08398,0.94317 2.01416,1.65933c2.48291,1.91124 4.90869,3.8503 7.16016,6.03541c1.01074,0.98125 2.5708,2.0738 3.47754,3.10484c1.34912,1.53631 2.70557,3.26155 3.96533,4.89599c3.27832,4.25159 7.20117,9.05092 9.32666,13.99523c0.40137,0.93292 0.52441,2.63033 0.74268,3.66723c0.09814,0.46719 0.38525,1.00175 0.46143,1.34299c0.57715,-0.33538 0.57568,-0.4584 1.17773,-0.43936c0.42041,0.33831 0.46289,0.45108 0.76318,0.91388c1.64355,4.22523 3.31055,8.68624 4.31396,13.1165c1.00488,4.44784 1.52783,8.88689 2.06543,13.40502h-10.94824h-3.9917h-15.28418h-5.01709h-28.48096c0.04688,-1.24487 0,-6.36054 0.77051,-7.34472c1.13525,-0.81282 2.65283,-1.56853 3.86133,-2.27445c2.99121,-1.74721 4.76953,-4.76564 7.23486,-6.87167c-0.20801,-0.19625 -0.19629,-0.18014 -0.47168,-0.26362c-0.23145,0.37785 -0.52881,0.91388 -0.92285,1.0823c-0.27979,-0.14645 -0.36914,-0.42472 -0.52295,-0.72056c0.36768,-0.45255 1.3125,-1.42501 1.14844,-1.983c5.68213,-8.33329 8.06396,-19.74359 0.70459,-27.71806c-0.56689,-0.61511 -1.58203,-1.53778 -1.82812,-2.28616c0.36621,-0.62976 3.97412,-1.94346 5.03174,-2.73871c1.62158,-1.43233 4.97754,-2.88077 6.33838,-4.35996c2.00537,-2.18071 4.8252,-4.05973 6.75,-6.05152z" fill="#510002"/><path d="M191.71729,225.8921c0.03809,0.00146 0.07617,0.00293 0.11426,0.00439c0.31934,0.01611 0.5332,0.06005 0.8335,0.16549c1.10742,0.38957 8.10205,-1.89513 9.71924,-2.26126c1.17041,-0.26362 2.30713,-0.4174 3.50391,-0.48184c0.48779,4.23401 0.82324,7.94811 1.77539,12.13526c0.46729,2.05183 0.38818,4.79493 0.66797,6.92878h-28.48096c0.04688,-1.24487 0,-6.36054 0.77051,-7.34472c1.13525,-0.81282 2.65283,-1.56853 3.86133,-2.27445c2.99121,-1.74721 4.76953,-4.76564 7.23486,-6.87167z" fill="#9a7e7c"/><path d="M211.09424,221.71374c1.43555,-0.48184 4.20117,-0.86555 5.78467,-1.14821c1.84863,-0.32806 6.43945,-1.8424 8.05957,-1.6154c2.56934,1.78089 3.0293,19.37013 3.69434,23.43279h-15.28418c-0.68848,-4.46834 -1.27148,-8.95133 -1.75049,-13.44749c-0.23437,-2.25834 -0.56982,-4.98972 -0.50391,-7.22169z" fill="#9a7e7c"/><path d="M235.25244,215.38689c0.57715,-0.33538 0.57568,-0.4584 1.17773,-0.43936c0.42041,0.33831 0.46289,0.45108 0.76318,0.91388c1.64355,4.22523 3.31055,8.68624 4.31396,13.1165c1.00488,4.44784 1.52783,8.88689 2.06543,13.40502h-10.94824c-0.05566,-4.03776 -0.11279,-8.45045 -0.2168,-12.45306c-0.05566,-2.14996 -1.22461,-11.7574 -1.00781,-12.91586c0.78955,-0.91827 2.37744,-0.95782 3.69434,-1.55389z" fill="#9a7e7c"/><path d="M170.44043,173.22983l-0.15967,-0.08934c-0.60937,-0.3427 -0.68555,-0.26948 -1.06641,-0.91388c0.39551,0.14938 0.64453,0.2314 1.05176,0.34124l0.104,-0.15524c-0.47168,-1.14821 -0.48926,-0.45694 -1.11182,-1.32542c0.62988,-0.82454 5.04199,-0.84065 6.07471,-0.71177c0.15674,0.40861 0.37207,0.28119 0.61377,0.95049l0.20215,0.05126l0.40723,-0.35589l0.14209,0.32074c0.37207,0.25044 0.46582,0.29145 0.75586,0.65172c-0.15088,0.36321 -0.03516,0.2109 -0.39111,0.44376c-0.32227,-0.18014 -0.73975,-0.21382 -1.11475,-0.2768c0.09668,-0.43936 0.14795,-0.26215 -0.03223,-0.57703c-0.63574,0.06298 -0.57275,0.48623 -0.7251,0.49941c-0.99902,0.08934 -3.1377,-0.39836 -3.77051,0.45401c0.09375,0.45401 -0.01318,0.26362 0.3457,0.57703l0.07031,-0.17282c1.86914,1.12477 1.32129,2.07966 2.10205,2.87491c0.76172,-1.51434 0.98584,-2.21147 2.29541,-3.33478c0.71631,0.19186 0.62402,0.29584 1.20557,0.93878c0.76611,-0.54335 1.00781,-0.65905 1.95264,-0.91681c1.42822,0.40861 2.40674,0.65026 3.37646,1.87316c0.5874,-0.30609 0.90674,-0.32074 1.54102,-0.73813c-0.37207,-0.47598 -0.62988,-0.80404 -1.05762,-1.2434c4.01074,-0.08055 4.98779,0.42911 8.81689,1.23608c-0.98145,0.34563 -1.36377,0.44083 -2.18115,1.10427c0.11426,0.60925 0.05273,0.81575 0.41895,1.24047l0.34424,0.03954c1.07373,-0.68834 1.89697,-0.55946 3.05566,-0.37346c0.19189,-0.64147 0.15234,-1.16432 0.1582,-1.83362c0.52588,-0.45547 0.87305,-0.72788 1.29785,-1.2932c4.88525,1.83801 7.80762,2.75335 12.23877,5.63119c-0.75879,0.43644 -0.17432,0.66491 -1.10449,1.31077c0.67529,0.42325 1.17773,0.73667 1.80762,1.22876l-0.15967,0.16696c-1.9248,1.99179 -4.74463,3.8708 -6.75,6.05152c-1.36084,1.47919 -4.7168,2.92763 -6.33838,4.35996c-1.05762,0.79525 -4.66553,2.10895 -5.03174,2.73871c0.24609,0.74838 1.26123,1.67105 1.82813,2.28616c7.35938,7.97447 4.97754,19.38478 -0.70459,27.71806c0.16406,0.55799 -0.78076,1.53045 -1.14844,1.983c0.15381,0.29584 0.24316,0.5741 0.52295,0.72056c0.39404,-0.16842 0.69141,-0.70445 0.92285,-1.0823c0.27539,0.08348 0.26367,0.06737 0.47168,0.26362c-2.46533,2.10602 -4.24365,5.12446 -7.23486,6.87167c-1.2085,0.70591 -2.72607,1.46162 -3.86133,2.27445c-0.77051,0.98418 -0.72363,6.09985 -0.77051,7.34472h-1.68457h-11.92383h-4.56152c0.25635,-4.5445 1.11621,-9.19151 1.18945,-13.72283c0.05859,-3.64673 -0.2373,-7.11039 -0.04687,-10.81863c-0.03955,-2.63326 0.82031,-5.39394 0.81592,-7.97447c-0.00439,-2.89249 -0.44238,-5.97243 -0.47021,-8.89714c-0.01318,-1.30784 -0.22412,-2.35939 -0.03369,-3.70092c0.46729,-2.08991 1.28906,-2.34914 2.29102,-4.12271c0.02051,-0.56239 0.03369,-0.36614 -0.45264,-0.92852c0.45996,-0.7601 0.52588,-0.82015 1.29199,-1.3137c1.67432,0.9007 3.08936,0.42765 4.78271,-0.10105l0.48486,0.07616l0.39697,-0.09227c0.77197,-1.45283 1.25684,-2.84123 0.94482,-4.49031c-0.65771,-3.47098 -5.72607,-5.12446 -8.2251,-2.5366c-0.38525,0.39982 -0.83057,1.14967 -1.13525,1.62711c0.15234,1.41475 0.10693,2.75042 0.65771,4.10806c0.11426,0.28119 0.99756,0.99882 1.26123,1.2229c-0.00293,0.48769 0.05566,0.26069 -0.21826,0.6942c-0.2959,0.0659 -0.5918,0.12009 -0.84668,-0.09666c-2.80078,-2.38282 -2.94873,-6.19065 -0.27979,-8.7624c0.35303,-0.34124 0.75732,-1.15114 0.68115,-1.66812l-0.62402,-0.02929c-0.64014,-0.52284 -0.8291,-0.67809 -1.3667,-1.32102c0.49951,-0.62243 3.14795,0.98711 3.94922,1.22729c0.62988,0.19186 1.29492,0.24604 1.94678,0.15671c0.89209,-0.12449 2.98682,-1.19654 3.47168,-1.81897l-0.38379,-0.14792l0.06592,-0.15378c0.55664,-1.34446 0.25342,-4.79933 -0.71191,-5.74103l-0.18164,0.19771l0.06445,0.28998l-0.24609,-0.11131l0.09961,-0.06005c-0.26514,0.01757 -0.13184,0.02636 -0.41309,-0.14353z" fill="url(#color-2)"/><path d="M170.44043,173.22983l-0.15967,-0.08934c-0.60937,-0.3427 -0.68555,-0.26948 -1.06641,-0.91388c0.39551,0.14938 0.64453,0.2314 1.05176,0.34124l0.104,-0.15524c-0.47168,-1.14821 -0.48926,-0.45694 -1.11182,-1.32542c0.62988,-0.82454 5.04199,-0.84065 6.07471,-0.71177c0.15674,0.40861 0.37207,0.28119 0.61377,0.95049l0.20215,0.05126l0.40723,-0.35589l0.14209,0.32074c0.37207,0.25044 0.46582,0.29145 0.75586,0.65172c-0.15088,0.36321 -0.03516,0.2109 -0.39111,0.44376c-0.32227,-0.18014 -0.73975,-0.21382 -1.11475,-0.2768c0.09668,-0.43936 0.14795,-0.26215 -0.03223,-0.57703c-0.63574,0.06298 -0.57275,0.48623 -0.7251,0.49941c-0.99902,0.08934 -3.1377,-0.39836 -3.77051,0.45401c0.09375,0.45401 -0.01318,0.26362 0.3457,0.57703l0.07031,-0.17282c1.86914,1.12477 1.32129,2.07966 2.10205,2.87491l0.2666,0.34124l-0.05127,0.28998c-0.99023,3.07116 -0.86572,2.68891 -3.04102,5.03073c1.94531,2.2393 3.47021,2.78411 3.52148,6.17454c0.03955,2.60397 -2.90625,3.99968 -1.56299,5.44373c1.77979,1.91124 3.08936,2.35207 2.90918,5.35293c-0.10547,1.74721 -0.96973,3.69213 -2.26172,4.91063c-1.0166,0.95928 -3.00146,1.32981 -4.38135,1.6813c0.01025,4.96336 -0.61377,10.04388 -0.97559,15.01603c-0.26807,3.69799 -0.51855,7.51753 -0.9126,11.19355l-0.78223,7.15872c-0.12891,1.12624 -0.41016,2.92178 -0.4248,3.97332h-4.56152c0.25635,-4.5445 1.11621,-9.19151 1.18945,-13.72283c0.05859,-3.64673 -0.2373,-7.11039 -0.04687,-10.81863c-0.03955,-2.63326 0.82031,-5.39394 0.81592,-7.97447c-0.00439,-2.89249 -0.44238,-5.97243 -0.47021,-8.89714c-0.01318,-1.30784 -0.22412,-2.35939 -0.03369,-3.70092c0.46729,-2.08991 1.28906,-2.34914 2.29102,-4.12271c0.02051,-0.56239 0.03369,-0.36614 -0.45264,-0.92852c0.45996,-0.7601 0.52588,-0.82015 1.29199,-1.3137c1.67432,0.9007 3.08936,0.42765 4.78271,-0.10105l0.48486,0.07616l0.39697,-0.09227c0.77197,-1.45283 1.25684,-2.84123 0.94482,-4.49031c-0.65771,-3.47098 -5.72607,-5.12446 -8.2251,-2.5366c-0.38525,0.39982 -0.83057,1.14967 -1.13525,1.62711c0.15234,1.41475 0.10693,2.75042 0.65771,4.10806c0.11426,0.28119 0.99756,0.99882 1.26123,1.2229c-0.00293,0.48769 0.05566,0.26069 -0.21826,0.6942c-0.2959,0.0659 -0.5918,0.12009 -0.84668,-0.09666c-2.80078,-2.38282 -2.94873,-6.19065 -0.27979,-8.7624c0.35303,-0.34124 0.75732,-1.15114 0.68115,-1.66812l-0.62402,-0.02929c-0.64014,-0.52284 -0.8291,-0.67809 -1.3667,-1.32102c0.49951,-0.62243 3.14795,0.98711 3.94922,1.22729c0.62988,0.19186 1.29492,0.24604 1.94678,0.15671c0.89209,-0.12449 2.98682,-1.19654 3.47168,-1.81897l-0.38379,-0.14792l0.06592,-0.15378c0.55664,-1.34446 0.25342,-4.79933 -0.71191,-5.74103l-0.18164,0.19771l0.06445,0.28998l-0.24609,-0.11131l0.09961,-0.06005c-0.26514,0.01757 -0.13184,0.02636 -0.41309,-0.14353z" fill="#3a0203"/><path d="M164.81396,199.00883c-0.22705,-4.58111 3.32959,-6.2053 7.18359,-4.56939c1.0708,0.971 1.57617,1.46162 2.28809,2.71527c0.06738,2.47216 -0.19775,3.94696 -2.28662,5.50085c-1.93213,0.08934 -4.28174,0.31927 -5.7832,-1.0574c-1.1499,-1.05301 -1.0166,-1.26244 -1.40186,-2.58932z" fill="#834f0c"/><path d="M166.26563,190.90402c1.67432,0.9007 3.08936,0.42765 4.78271,-0.10105l0.48486,0.07616c-0.71338,0.21529 -1.39893,0.39836 -2.07568,0.71177c-0.03662,0.67369 0.59473,1.43819 1.17041,1.69448l0.55225,-0.20504c-0.01025,0.3017 -0.09814,0.44815 -0.2124,0.73081l0.21387,0.05272l0.23877,-0.1611l0.08496,0.09666c0.23584,0.26362 0.30762,0.39836 0.64746,0.49355l-0.15527,0.14645c-3.854,-1.6359 -7.41064,-0.01172 -7.18359,4.56939l-0.19189,0.02929c0.01025,-0.08055 0.01904,-0.1611 0.02637,-0.24312c0.10547,-1.17603 -0.58301,-0.35149 -1.35645,-1.25951l0.09668,0.39103l-0.16553,-0.04687l-0.08789,-0.61072c0.46729,-2.08991 1.28906,-2.34914 2.29102,-4.12271c0.02051,-0.56239 0.03369,-0.36614 -0.45264,-0.92852c0.45996,-0.7601 0.52588,-0.82015 1.29199,-1.3137z" fill="#010000"/><path d="M184.48828,183.93862c9.05566,3.26595 2.86523,16.72223 -6.30469,10.287c-1.35645,-1.11013 -1.86475,-1.85412 -2.53418,-3.42851c-0.36621,-3.46073 1.1748,-6.35614 4.85156,-6.85556c1.16895,0.10105 2.78174,0.02197 3.9873,-0.00293z" fill="#210000"/><path d="M180.12012,185.27429c1.20703,0 2.80664,-0.03954 3.98291,0.03076c6.38232,3.93085 1.97021,11.98587 -5.23096,7.39597c-0.74268,-0.71324 -0.97266,-1.17896 -1.38281,-2.07966c0.14941,-2.81047 0.2959,-3.55153 2.63086,-5.34707z" fill="#834f0c"/><path d="M175.64941,190.7971c0.2666,-0.69859 0.88184,-1.24633 1.6582,-0.91388l0.18164,0.73813c0.41016,0.9007 0.64014,1.36642 1.38281,2.07966c-0.21973,0.51259 -0.44971,1.02079 -0.68848,1.5246c-1.35645,-1.11013 -1.86475,-1.85412 -2.53418,-3.42851z" fill="#010000"/><path d="M195.1626,172.51513c4.88525,1.83801 7.80762,2.75335 12.23877,5.63119c-0.75879,0.43644 -0.17432,0.66491 -1.10449,1.31077c-2.81982,-1.67691 -5.81836,-3.03601 -8.93848,-4.05241l-0.14795,0.08055c0.42188,0.48184 0.53613,1.05448 0.84521,1.58611c1.20557,2.06648 0.90527,5.03366 -0.86572,6.71496c-3.3999,3.2264 -10.24658,-0.36614 -9.96094,-4.85791c0.12451,-1.94932 1.27588,-3.01551 2.65869,-4.193c0.11426,0.60925 0.05273,0.81575 0.41895,1.24047l0.34424,0.03954c1.07373,-0.68834 1.89697,-0.55946 3.05566,-0.37346c0.19189,-0.64147 0.15234,-1.16432 0.1582,-1.83362c0.52588,-0.45547 0.87305,-0.72788 1.29785,-1.2932z" fill="url(#color-3)"/><path d="M190.65088,176.01541c1.07373,-0.68834 1.89697,-0.55946 3.05566,-0.37346c2.20459,0.71909 2.58838,1.61247 3.42334,3.62037c-0.24463,2.48973 -1.12939,4.39804 -4.08105,4.00261c-1.27002,-0.15817 -2.42285,-0.82308 -3.19629,-1.84533c-1.41211,-1.89366 -0.72656,-3.87373 0.79834,-5.40419z" fill="#834f0c"/><path d="M177.43945,173.42023c0.76611,-0.54335 1.00781,-0.65905 1.95264,-0.91681c1.42822,0.40861 2.40674,0.65026 3.37646,1.87316l0.1333,0.23433c1.41064,2.51317 1.84863,4.85498 -1.19824,6.43962c-1.45312,0.00146 -3.01611,0.08934 -4.21143,-0.85676c-2.37158,-1.87462 -1.57617,-4.75832 -0.05273,-6.77354z" fill="#634637"/><path d="M176.23389,172.48145c0.71631,0.19186 0.62402,0.29584 1.20557,0.93878c-1.52344,2.01522 -2.31885,4.89892 0.05273,6.77354c1.19531,0.9461 2.7583,0.85823 4.21143,0.85676c3.04688,-1.58464 2.60889,-3.92646 1.19824,-6.43962l-0.1333,-0.23433c0.5874,-0.30609 0.90674,-0.32074 1.54102,-0.73813c1.11475,1.62272 1.77686,3.22054 1.39014,5.2343c-0.2417,1.31517 -1.02246,2.47069 -2.15479,3.18393c-0.39844,0.2519 -0.67969,0.34563 -1.12939,0.4584c-0.97412,-0.05565 -1.99658,-0.02783 -2.96045,0.13474c-1.94971,-0.00293 -4.12061,-1.95224 -4.88379,-3.64526c-0.45117,-1.00322 -0.43945,-1.50116 -0.41748,-2.5571l0.05127,-0.28998l-0.2666,-0.34124c0.76172,-1.51434 0.98584,-2.21147 2.29541,-3.33478z" fill="#210000"/><path d="M190.94824,224.00723c0.16406,0.55799 -0.78076,1.53045 -1.14844,1.983c0.15381,0.29584 0.24316,0.5741 0.52295,0.72056c0.39404,-0.16842 0.69141,-0.70445 0.92285,-1.0823c0.27539,0.08348 0.26367,0.06737 0.47168,0.26362c-2.46533,2.10602 -4.24365,5.12446 -7.23486,6.87167c-1.2085,0.70591 -2.72607,1.46162 -3.86133,2.27445c-0.77051,0.98418 -0.72363,6.09985 -0.77051,7.34472h-1.68457c0.06152,-2.21586 -0.15674,-6.16575 0.34277,-8.1883c0.20801,-0.84065 3.40723,-1.69302 4.52637,-2.38282c3.68994,-2.27152 5.26904,-4.44344 7.91309,-7.80458z" fill="#010000"/><path d="M179.45508,182.64982c0.96387,-0.16256 1.98633,-0.19039 2.96045,-0.13474l-0.21973,0.30756c0.37061,0.31927 1.25098,0.33831 2.29248,1.11599c-1.20557,0.0249 -2.81836,0.10398 -3.9873,0.00293c-0.0791,-0.57996 -0.59912,-0.97685 -1.0459,-1.29173z" fill="#634637"/><path d="M131.6458,169.69295c0.65962,-0.06737 1.32056,-0.18893 1.95937,-0.05858c-0.00527,0.4833 -0.07896,0.9915 0.16992,1.384c0.02256,0.59168 -0.45996,1.50409 -0.75073,2.01961c2.93789,2.35646 1.89507,7.48238 -2.3124,7.82362c-0.09683,0.00732 -0.19365,0.01318 -0.29077,0.01757c0.0186,0.34563 0.07632,1.00029 0.03765,1.31663l-0.42554,0.20211c0.05801,0.60632 0.49673,1.0164 0.90278,1.57146c2.75493,4.04069 0.63984,6.89803 -2.94331,9.07581c1.90151,2.41797 2.10352,3.44901 1.92671,6.56411l2.66235,-0.06151c-0.79204,1.93321 -0.26074,3.75218 1.12441,5.2138c0.37046,0.34124 0.66929,0.54042 0.82734,1.00907c-0.71763,0.30316 -1.01162,0.61218 -1.06011,1.44258c-0.2417,4.14907 0.39888,8.67892 0.59092,12.81774c0.58081,2.17778 1.00444,9.1798 1.24658,11.72518c0.32578,3.42558 1.26621,7.44577 1.60034,10.62677h-4.9957h-16.03579h-1.80176c0.01318,-2.13678 0.1415,-4.60454 -0.00527,-6.68713c-0.65171,-0.65026 -6.08335,-3.92939 -6.95039,-4.23548c0.3457,-1.39864 1.07183,-0.65612 0.28315,-2.11774c-0.17446,-0.34856 -2.39077,-2.72699 -2.78716,-3.24398c-2.60815,-3.39922 -4.1187,-7.49263 -4.06641,-11.74129c0.08716,-7.09428 2.10601,-10.31336 6.93325,-15.03506c-1.62583,-3.06823 -2.40879,-2.95107 -4.84834,-5.16693c-2.84004,-2.58054 -5.69224,-5.26359 -8.67642,-7.70499c-1.49106,-1.21997 -3.76084,-4.06998 -5.35298,-4.85352c0.59487,-1.45723 7.78389,-3.83712 9.4377,-4.07731c-0.90967,1.49238 -0.90381,2.96425 -0.76553,4.69388c0.06108,-0.37932 0.00249,-0.44669 0.21943,-0.67516c0.04453,0.75424 0.01714,1.27269 0.50991,1.80432l0.34424,-0.01172c0.29824,-0.2065 0.49453,-0.28998 0.62666,-0.6239c-0.11953,-0.27534 -0.08174,-0.12595 0.01406,-0.49648l0.13184,0.28559c0.61948,1.33128 1.09263,1.76771 2.21045,2.73724c0.86733,0.64294 1.85376,0.88898 2.92222,0.6898c2.60054,-0.30756 3.21284,-1.14088 3.87861,-3.59254l0.10972,-0.01757c0.51167,-0.08494 0.69741,-0.15524 1.18228,-0.33685c0.22075,0.06005 0.24756,0.02929 0.3876,0.16256c0.06182,0.58728 -0.03193,0.76449 0.31992,1.09402c0.32593,-0.00439 0.65405,-0.00439 0.9791,-0.02343c1.03887,-0.19039 2.58955,-0.03954 3.26982,-0.75717c2.6833,0.9256 3.87466,1.30638 6.44048,-0.35881l0.35303,0.23872l0.42773,-0.32659l0.68379,-0.65612l-0.13564,-0.35003c1.14023,-2.18071 1.67168,-6.13353 -0.39609,-7.90271c-0.30542,0.79232 -0.71865,0.55506 -1.45342,0.79525l-0.74209,-0.6195c0.43843,-1.26976 0.97456,-0.4379 0.51416,-2.22319c2.69824,-0.06737 9.11279,0.18746 11.43721,-0.2314c0.23994,-0.40568 0.14546,-0.59314 0.1311,-1.12477z" fill="#9a7e7c"/><path d="M131.6458,169.69295c0.65962,-0.06737 1.32056,-0.18893 1.95937,-0.05858c-0.00527,0.4833 -0.07896,0.9915 0.16992,1.384c0.02256,0.59168 -0.45996,1.50409 -0.75073,2.01961c2.93789,2.35646 1.89507,7.48238 -2.3124,7.82362c-0.09683,0.00732 -0.19365,0.01318 -0.29077,0.01757c0.0186,0.34563 0.07632,1.00029 0.03765,1.31663l-0.42554,0.20211c0.05801,0.60632 0.49673,1.0164 0.90278,1.57146c2.75493,4.04069 0.63984,6.89803 -2.94331,9.07581c1.90151,2.41797 2.10352,3.44901 1.92671,6.56411l2.66235,-0.06151c-0.79204,1.93321 -0.26074,3.75218 1.12441,5.2138c0.37046,0.34124 0.66929,0.54042 0.82734,1.00907c-0.71763,0.30316 -1.01162,0.61218 -1.06011,1.44258c-0.2417,4.14907 0.39888,8.67892 0.59092,12.81774c0.58081,2.17778 1.00444,9.1798 1.24658,11.72518c0.32578,3.42558 1.26621,7.44577 1.60034,10.62677h-4.9957c-1.02363,-5.80401 -1.26548,-11.75447 -1.99321,-17.61999c-0.50757,-4.09049 -0.53276,-8.36258 -1.00181,-12.49261c-0.28608,-2.51756 0.2877,-5.71907 -0.06401,-8.30839c-0.10195,-0.74838 -0.05728,-1.01493 -0.57261,-1.60515c-0.36636,-0.0454 -1.125,0.56239 -1.48755,0.78939c-0.69727,0.43497 -1.24893,0.61072 -2.02324,0.81722c-0.21519,0.01757 -0.43096,0.02783 -0.64688,0.03222c-1.86401,0.02783 -4.16777,-0.98564 -5.45596,-2.31545c-1.6582,-1.71059 -1.75313,-3.40947 -1.77305,-5.62826l-1.5624,0.62683c-0.09917,-0.57996 -0.24917,-1.07351 -0.09419,-1.62419c2.34785,-1.00468 2.28091,-4.07291 2.02793,-6.17454l0.06738,-0.07469c0.49409,-0.1611 1.09102,-0.43497 1.57925,-0.64294c-0.4834,-1.41183 -0.73066,-1.97861 -1.7978,-3.08873c-1.19824,-1.2478 -4.3374,-1.90538 -6.00176,-1.86437c1.03887,-0.19039 2.58955,-0.03954 3.26982,-0.75717c2.6833,0.9256 3.87466,1.30638 6.44048,-0.35881l0.35303,0.23872l0.42773,-0.32659l0.68379,-0.65612l-0.13564,-0.35003c1.14023,-2.18071 1.67168,-6.13353 -0.39609,-7.90271c-0.30542,0.79232 -0.71865,0.55506 -1.45342,0.79525l-0.74209,-0.6195c0.43843,-1.26976 0.97456,-0.4379 0.51416,-2.22319c2.69824,-0.06737 9.11279,0.18746 11.43721,-0.2314c0.23994,-0.40568 0.14546,-0.59314 0.1311,-1.12477z" fill="#3a0203"/><path d="M131.6458,169.69295c0.65962,-0.06737 1.32056,-0.18893 1.95937,-0.05858c-0.00527,0.4833 -0.07896,0.9915 0.16992,1.384c0.02256,0.59168 -0.45996,1.50409 -0.75073,2.01961c2.93789,2.35646 1.89507,7.48238 -2.3124,7.82362c-0.09683,0.00732 -0.19365,0.01318 -0.29077,0.01757c0.0186,0.34563 0.07632,1.00029 0.03765,1.31663l-0.42554,0.20211c0.05801,0.60632 0.49673,1.0164 0.90278,1.57146c-0.45103,0.30756 -0.998,0.59021 -1.21436,1.05594l-0.0082,0.35149c0.61963,1.52167 0.70767,2.87345 0.11089,4.45662c-0.69961,0.66344 -0.88945,0.79964 -1.84175,1.14381l0.03091,0.05272l-0.12305,0.10838c-1.83252,0.06883 -3.60937,0.32806 -4.99878,-1.07498c-2.89673,-2.92617 -2.34492,-4.72464 0.0627,-7.45163c-0.12847,-0.16549 -0.85869,-0.24458 -1.24541,-0.36467l-0.09917,-0.03222l-0.00308,-0.20943l0.68379,-0.65612l-0.13564,-0.35003c1.14023,-2.18071 1.67168,-6.13353 -0.39609,-7.90271c-0.30542,0.79232 -0.71865,0.55506 -1.45342,0.79525l-0.74209,-0.6195c0.43843,-1.26976 0.97456,-0.4379 0.51416,-2.22319c2.69824,-0.06737 9.11279,0.18746 11.43721,-0.2314c0.23994,-0.40568 0.14546,-0.59314 0.1311,-1.12477z" fill="#010000"/><path d="M130.42119,180.87918c-1.61587,-0.19625 -3.727,-0.90802 -4.12676,-2.582c-1.20425,-5.04537 2.45933,-7.05473 6.72993,-5.2592c2.93789,2.35646 1.89507,7.48238 -2.3124,7.82362c-0.09683,0.00732 -0.19365,0.01318 -0.29077,0.01757z" fill="#834f0c"/><path d="M121.21992,187.37445c0.10356,-4.87695 2.16841,-4.4493 6.16436,-4.28088c1.01646,0.66637 1.59492,1.34006 2.32925,2.28323c0.61963,1.52167 0.70767,2.87345 0.11089,4.45662c-0.69961,0.66344 -0.88945,0.79964 -1.84175,1.14381c-3.26602,0.06883 -5.22026,-0.27241 -6.76274,-3.60279z" fill="#634637"/><path d="M121.75884,173.09656c0.11147,-0.27826 0.09756,-0.43644 0.4002,-0.51406c0.97837,-0.25337 2.63423,-0.10691 3.64028,-0.03661c-1.94736,2.58054 -1.99761,4.67045 -0.67046,7.58637c-1.21069,0.27241 -1.77729,0.54921 -2.83828,1.21704l-0.13564,-0.35003c1.14023,-2.18071 1.67168,-6.13353 -0.39609,-7.90271z" fill="#8d7262"/><path d="M124.28027,202.3319c-0.74399,-0.09812 -1.45767,-0.16842 -2.18232,-0.40275c-5.77617,-1.86144 -3.56016,-9.93257 2.2374,-8.93961c1.5564,0.26655 2.46079,1.08377 3.35698,2.36085c0.08848,0.54774 0.39302,0.99589 0.44092,1.41475c0.33955,2.97743 -0.9731,4.97654 -3.85298,5.56675z" fill="#834f0c"/><path d="M117.26865,188.88001l0.06738,-0.07469c0.49409,-0.1611 1.09102,-0.43497 1.57925,-0.64294c0.43638,1.38253 0.51387,1.98154 0.54053,3.4373c-1.56636,0.49502 -1.51978,2.46191 0.52529,2.37257c2.01357,-2.41358 7.55464,-1.13795 7.71123,1.37814c-0.89619,-1.27709 -1.80059,-2.09431 -3.35698,-2.36085c-5.79756,-0.99296 -8.01357,7.07817 -2.2374,8.93961c0.72466,0.23433 1.43833,0.30463 2.18232,0.40275c-0.92988,0.26801 -3.81929,-0.44815 -4.3667,-1.10866l0.07441,-0.26655c-0.44385,-0.36028 -2.00479,-1.72377 -2.47866,-1.72231c-0.11162,1.78529 4.20557,4.52985 5.92427,4.50349c0.36489,-0.00439 1.0437,-0.10545 1.31616,0.08201l0.02344,0.14353c-0.21519,0.01757 -0.43096,0.02783 -0.64688,0.03222c-1.86401,0.02783 -4.16777,-0.98564 -5.45596,-2.31545c-1.6582,-1.71059 -1.75313,-3.40947 -1.77305,-5.62826l-1.5624,0.62683c-0.09917,-0.57996 -0.24917,-1.07351 -0.09419,-1.62419c2.34785,-1.00468 2.28091,-4.07291 2.02793,-6.17454z" fill="#010000"/><path d="M120.82603,182.09329l0.35303,0.23872c-0.96782,1.0369 -1.79121,2.53514 -1.76748,3.9909c0.0353,2.15728 1.6166,3.38018 2.03262,5.22991c-0.48193,0.17575 -1.471,0.62976 -1.8791,0.50088l-0.10928,-0.45401c-0.02666,-1.45576 -0.10415,-2.05476 -0.54053,-3.4373c-0.4834,-1.41183 -0.73066,-1.97861 -1.7978,-3.08873c-1.19824,-1.2478 -4.3374,-1.90538 -6.00176,-1.86437c1.03887,-0.19039 2.58955,-0.03954 3.26982,-0.75717c2.6833,0.9256 3.87466,1.30638 6.44048,-0.35881z" fill="url(#color-4)"/><path d="M121.17905,182.33201l0.42773,-0.32659l0.00308,0.20943c-4.83398,5.66634 0.85269,6.99762 -0.21064,9.55618c-1.00693,0.76157 -1.64473,0.13767 -1.9002,1.31809c0.43374,0.49941 0.41543,0.32952 0.48208,0.88312c-2.04507,0.08934 -2.09165,-1.87755 -0.52529,-2.37257l0.10928,0.45401c0.40811,0.12888 1.39717,-0.32513 1.8791,-0.50088c-0.41602,-1.84973 -1.99731,-3.07262 -2.03262,-5.22991c-0.02373,-1.45576 0.79966,-2.954 1.76748,-3.9909z" fill="#210000"/><path d="M133.70625,204.76158c0.37046,0.34124 0.66929,0.54042 0.82734,1.00907c-0.71763,0.30316 -1.01162,0.61218 -1.06011,1.44258c-0.2417,4.14907 0.39888,8.67892 0.59092,12.81774c-0.28652,-0.59461 -0.36255,-0.81136 -0.41191,-1.5656c-0.28066,-4.28527 -0.84492,-8.70089 -0.40166,-12.98177c0.02007,-0.19186 0.3334,-0.57264 0.45542,-0.72202z" fill="#510002"/><path d="M108.63882,187.25875c0.2666,-0.41007 0.71924,-1.14821 1.1146,-1.39425c2.13926,-1.32688 5.97847,-1.22143 6.97617,1.51581c0.18911,0.51845 0.37632,0.96953 0.53906,1.4997c0.25298,2.10163 0.31992,5.16986 -2.02793,6.17454l-0.47109,0.04101c-5.56348,0.51259 -8.21719,-2.54099 -6.13081,-7.8368z" fill="#834f0c"/><path d="M97.27969,182.21338c0.06108,-0.37932 0.00249,-0.44669 0.21943,-0.67516c0.04453,0.75424 0.01714,1.27269 0.50991,1.80432l0.34424,-0.01172c0.29824,-0.2065 0.49453,-0.28998 0.62666,-0.6239c-0.11953,-0.27534 -0.08174,-0.12595 0.01406,-0.49648l0.13184,0.28559c0.61948,1.33128 1.09263,1.76771 2.21045,2.73724c0.86733,0.64294 1.85376,0.88898 2.92222,0.6898c2.60054,-0.30756 3.21284,-1.14088 3.87861,-3.59254l0.10972,-0.01757c0.51167,-0.08494 0.69741,-0.15524 1.18228,-0.33685c0.22075,0.06005 0.24756,0.02929 0.3876,0.16256c0.06182,0.58728 -0.03193,0.76449 0.31992,1.09402c0.32593,-0.00439 0.65405,-0.00439 0.9791,-0.02343c1.66436,-0.04101 4.80352,0.61658 6.00176,1.86437c1.06714,1.11013 1.3144,1.67691 1.7978,3.08873c-0.48823,0.20797 -1.08516,0.48184 -1.57925,0.64294l-0.06738,0.07469c-0.16274,-0.53017 -0.34995,-0.98125 -0.53906,-1.4997c-0.99771,-2.73724 -4.83691,-2.84269 -6.97617,-1.51581c-0.39536,0.24604 -0.848,0.98418 -1.1146,1.39425l-0.17168,-0.19332c-0.22603,0.5287 -0.63135,1.93613 -0.86353,2.14849c-0.23115,-0.56385 0.12305,-1.47187 0.32051,-2.07527l-0.19087,-0.03515c-0.41719,0.32952 -0.40796,0.57557 -0.57363,1.10866l-0.21123,0.66344l-0.21504,-0.08641c-0.37251,-0.98564 0.27378,-0.13327 -0.3189,-1.36935c-0.70723,-0.41593 -4.21816,0.37053 -6.4207,-1.35324c-1.47378,-1.15406 -2.21572,-1.65933 -2.71406,-3.85323z" fill="#210000"/><path d="M107.40557,229.34258c1.86152,1.57146 3.7853,3.12535 6.1062,3.96454c1.52915,0.55214 2.4394,1.11892 2.50049,2.91738c0.06943,2.04158 -0.05112,4.11245 -0.13242,6.15843h-1.80176c0.01318,-2.13678 0.1415,-4.60454 -0.00527,-6.68713c-0.65171,-0.65026 -6.08335,-3.92939 -6.95039,-4.23548c0.3457,-1.39864 1.07183,-0.65612 0.28315,-2.11774z" fill="#010000"/><path d="M106.41445,187.41985c0.59268,1.23608 -0.05361,0.38371 0.3189,1.36935l0.21504,0.08641l0.21123,-0.66344c0.16567,-0.5331 0.15645,-0.77914 0.57363,-1.10866l0.19087,0.03515c-0.19746,0.60339 -0.55166,1.51141 -0.32051,2.07527c0.23218,-0.21236 0.6375,-1.61979 0.86353,-2.14849l0.17168,0.19332c-2.08638,5.29581 0.56733,8.3494 6.13081,7.8368l0.47109,-0.04101c-0.15498,0.55067 -0.00498,1.04422 0.09419,1.62419c-1.14243,0.4379 -2.4813,0.12009 -3.63413,-0.08641c-4.62949,-0.82601 -6.29136,-4.80079 -5.28633,-9.17247z" fill="url(#color-5)"/><path d="M158.41846,174.79837c0.83936,-0.29145 1.88965,-0.67223 2.7832,-0.53895c1.25098,0.90949 -1.29346,4.07291 3.29443,7.20558c-1.56299,2.09431 -2.87842,3.48856 -2.46826,6.34443c0.29004,2.02694 1.44287,3.15171 2.9458,4.40829c0.48633,0.56239 0.47314,0.36614 0.45264,0.92852c-1.00195,1.77357 -1.82373,2.03279 -2.29102,4.12271c-0.19043,1.34153 0.02051,2.39307 0.03369,3.70092c0.02783,2.92471 0.46582,6.00465 0.47021,8.89714c0.00439,2.58054 -0.85547,5.34121 -0.81592,7.97447c-0.19043,3.70824 0.10547,7.1719 0.04688,10.81863c-0.07324,4.53132 -0.93311,9.17833 -1.18945,13.72283h-24.76934c-0.33413,-3.181 -1.27456,-7.20119 -1.60034,-10.62677c-0.24214,-2.54539 -0.66577,-9.5474 -1.24658,-11.72518c-0.19204,-4.13882 -0.83262,-8.66867 -0.59092,-12.81774c0.04849,-0.8304 0.34248,-1.13942 1.06011,-1.44258c-0.15806,-0.46866 -0.45688,-0.66783 -0.82734,-1.00907c-1.38516,-1.46162 -1.91646,-3.28059 -1.12441,-5.2138l-2.66235,0.06151c0.17681,-3.1151 -0.0252,-4.14614 -1.92671,-6.56411c3.58315,-2.17778 5.69824,-5.03512 2.94331,-9.07581c-0.40605,-0.55506 -0.84478,-0.96514 -0.90278,-1.57146l0.42554,-0.20211c2.83022,0.3471 4.09629,-1.41475 5.69077,-3.32306c0.32168,1.33128 1.20542,2.79143 2.43135,3.4578c0.23921,-0.47891 0.62124,-0.67662 1.06714,-0.99736c0.79775,0.4379 1.18726,0.54921 2.11875,0.66344c1.12192,0.29291 1.02524,0.2973 1.36655,1.40304c1.26401,0.20797 1.42896,0.06883 2.59951,-0.41007c0.23086,-0.03368 0.3939,-0.05565 0.59927,-0.17868c1.12046,-0.67809 2.03745,-0.49355 3.30601,-0.5785l0.70313,0.75424l1.36084,1.23462c0.1626,-0.3676 0.64014,-1.06033 0.87744,-1.42501c-0.33691,-0.23579 -0.71924,-0.55506 -1.04883,-0.81282c-1.51758,-1.68716 -2.03467,-4.13149 -0.72363,-6.23019c0.68408,-1.09695 1.27588,-0.96367 2.42285,-1.14967c1.24365,-0.98857 3.4248,0.41447 4.5,1.06473c0.37207,-0.42179 0.39404,-0.57557 0.60059,-1.11452c0.12012,0.14792 0.09375,0.06444 0.08789,0.24458z" fill="url(#color-6)"/><path d="M153.22998,174.60358c1.24365,-0.98857 3.4248,0.41447 4.5,1.06473c0.37207,-0.42179 0.39404,-0.57557 0.60059,-1.11452c0.12012,0.14792 0.09375,0.06444 0.08789,0.24458c2.49023,1.5905 2.50635,5.22405 0.89648,7.46481c-1.02539,1.42794 -1.72705,1.84973 -3.36035,2.39161c1.3667,2.18511 3.90234,2.78997 3.14648,6.43084c-0.44238,2.13238 -1.37402,3.22933 -3.11572,4.46834c3.5332,1.99179 5.86377,4.96629 3.74561,9.23984c-1.52637,3.07848 -5.52246,3.68774 -8.38477,1.81018c-1.09424,-0.71763 -1.98779,-1.70181 -2.59717,-2.8588l-0.48926,-1.0618c-1.35205,-3.10777 2.06689,-5.21526 2.93555,-7.25684c-3.70752,-1.47334 -5.63921,-4.78029 -2.94141,-8.47095c0.77197,-1.05594 3.18896,-2.14996 3.44824,-2.73431c0.1626,-0.3676 0.64014,-1.06033 0.87744,-1.42501c-0.33691,-0.23579 -0.71924,-0.55506 -1.04883,-0.81282c-1.51758,-1.68716 -2.03467,-4.13149 -0.72363,-6.23019c0.68408,-1.09695 1.27588,-0.96367 2.42285,-1.14967z" fill="url(#color-7)"/><path d="M152.02441,197.25137c4.86914,-0.96953 7.70654,2.04598 6.29297,6.87606c-0.72803,0.74838 -1.1001,1.09402 -2.01709,1.62858c-1.46191,0.00732 -2.37891,-0.01465 -3.84082,-0.15524c-1.11475,-0.74985 -1.46924,-1.23315 -2.20898,-2.35792c-0.24316,-0.64001 -0.2915,-1.2024 -0.38086,-1.87462c0.3457,-2.03426 0.58447,-2.74896 2.15479,-4.11685z" fill="#834f0c"/><path d="M153.22998,174.60358c0.79102,0.01318 1.67725,0.00586 2.45801,0.04101c1.29639,0.83333 2.42871,1.61247 2.73047,3.23812c0.73389,3.96454 -2.21338,6.20969 -5.83887,4.91356c-0.33691,-0.23579 -0.71924,-0.55506 -1.04883,-0.81282c-1.51758,-1.68716 -2.03467,-4.13149 -0.72363,-6.23019c0.68408,-1.09695 1.27588,-0.96367 2.42285,-1.14967z" fill="#834f0c"/><path d="M149.86963,201.36822c0.08936,0.67223 0.1377,1.23462 0.38086,1.87462c-0.51855,0.13474 -1.04883,0.22847 -1.50146,0.50234l-0.48926,-1.0618c0.18457,-0.46866 1.13379,-0.98857 1.60986,-1.31517z" fill="#010000"/><path d="M151.771,186.16181c6.52148,-0.62243 7.18652,6.7794 3.19629,7.7006c-1.17187,0.02783 -2.34375,0.04394 -3.51562,0.04833c-3.83203,-2.06794 -2.97949,-5.77032 0.31934,-7.74893z" fill="#634637"/><path d="M137.19727,196.77539c2.62266,0.29145 4.57354,-0.29584 6.38804,2.01815c2.28853,2.91885 1.13247,7.16897 -2.8292,7.64348c-1.87207,0.25337 -2.72358,-0.01757 -4.21362,-1.06473c-1.15781,-1.04422 -1.96934,-1.87316 -2.05854,-3.54275c-0.11514,-2.15582 0.99243,-3.84884 2.71333,-5.05416z" fill="#834f0c"/><path d="M139.6481,181.33319c0.79775,0.4379 1.18726,0.54921 2.11875,0.66344c1.12192,0.29291 1.02524,0.2973 1.36655,1.40304c0.49644,0.71031 0.8124,1.18336 1.40991,1.81458c-0.7144,0.37639 -0.70723,0.59021 -1.53135,0.82747c0.76172,0.84651 1.1707,1.49091 1.28218,2.6728c0.09111,0.93292 -0.19307,1.86144 -0.7894,2.58347c-1.62554,1.93321 -5.077,1.91417 -6.83979,0.2065c-1.35732,-1.3137 -1.52578,-2.53953 -1.60049,-4.31456l0.09141,-0.15231c0.66577,-1.12184 1.21084,-1.59197 2.15288,-2.49852c-0.33472,-0.38957 -0.41177,-0.67516 -0.61084,-1.15699c0.71177,-0.35589 1.32114,-0.45987 2.03833,-0.82601l-0.15527,-0.22554c0.23921,-0.47891 0.62124,-0.67662 1.06714,-0.99736z" fill="#634637"/><path d="M139.6481,181.33319c0.79775,0.4379 1.18726,0.54921 2.11875,0.66344c1.12192,0.29291 1.02524,0.2973 1.36655,1.40304c0.49644,0.71031 0.8124,1.18336 1.40991,1.81458c-0.7144,0.37639 -0.70723,0.59021 -1.53135,0.82747c-1.29316,-1.19947 -4.0103,-2.13971 -5.70322,-1.50263c-0.33472,-0.38957 -0.41177,-0.67516 -0.61084,-1.15699c0.71177,-0.35589 1.32114,-0.45987 2.03833,-0.82601l-0.15527,-0.22554c0.23921,-0.47891 0.62124,-0.67662 1.06714,-0.99736z" fill="#010000"/><path d="M132.58184,199.54779c0.64248,-0.6488 1.05762,-1.40157 1.62773,-2.10749c3.08467,-3.81808 6.78853,-3.10777 10.12544,-0.04101c3.88667,3.57204 2.14028,8.29228 -2.05942,10.54915c-0.33589,-1.07791 -0.49116,-1.2932 -1.51948,-1.51141c3.96167,-0.47451 5.11772,-4.72464 2.8292,-7.64348c-1.8145,-2.31399 -3.76538,-1.7267 -6.38804,-2.01815c-1.7209,1.20532 -2.82847,2.89834 -2.71333,5.05416c0.08921,1.66959 0.90073,2.49852 2.05854,3.54275c-0.69067,0.44376 -0.65493,0.39396 -0.99419,1.2434c-0.33867,-0.27241 -0.68027,-0.56678 -1.0147,-0.84505c-0.15806,-0.46866 -0.45688,-0.66783 -0.82734,-1.00907c-1.38516,-1.46162 -1.91646,-3.28059 -1.12441,-5.2138z" fill="#3a0203"/><path d="M144.54331,185.21424c0.14575,0.17135 0.28418,0.35003 0.41484,0.5331c1.86021,2.64058 1.16206,5.80547 -1.43569,7.68596c-1.24438,0.9007 -3.81973,0.90656 -5.30171,0.54628c-3.11191,-0.75571 -5.69766,-3.78586 -4.79619,-7.11039c0.48237,-1.75892 1.8167,-2.63033 3.27334,-3.48709c0.19907,0.48184 0.27612,0.76742 0.61084,1.15699c-0.94204,0.90656 -1.48711,1.37668 -2.15288,2.49852l-0.09141,0.15231c0.07471,1.77503 0.24316,3.00086 1.60049,4.31456c1.76279,1.70766 5.21426,1.7267 6.83979,-0.2065c0.59634,-0.72202 0.88052,-1.65055 0.7894,-2.58347c-0.11147,-1.18189 -0.52046,-1.82629 -1.28218,-2.6728c0.82412,-0.23726 0.81694,-0.45108 1.53135,-0.82747z" fill="#210000"/><path d="M135.54829,206.6157c0.33926,-0.84944 0.30352,-0.79964 0.99419,-1.2434c1.49004,1.04715 2.34155,1.31809 4.21362,1.06473c1.02832,0.21822 1.18359,0.43351 1.51948,1.51141c-2.47588,0.30756 -4.65396,0.12156 -6.72729,-1.33274z" fill="#010000"/><path d="M159.46875,45.6273c8.83887,2.64527 15.98145,6.86097 21.29443,14.6206c2.18701,3.19448 2.87549,4.12754 4.25391,7.90871c1.19385,3.27034 2.56934,6.48986 3.14063,10.03348c0.82764,5.54742 0.6167,11.97796 -0.04102,17.52685c-0.27393,2.3033 -1.65674,8.13396 -1.61133,10.13278c0.06738,2.989 3.09814,5.72653 1.61133,10.23134c-1.2627,3.82906 -3.48633,5.66166 -6.21826,8.39626c0.73389,1.17926 1.25684,2.25599 1.35791,3.65727c0.30176,4.13926 -2.72168,7.9525 -7.11621,6.8021c-1.33154,-0.3449 -2.45654,-1.23095 -3.10547,-2.44375c-0.68701,-1.27694 -0.65479,-2.518 -0.7002,-3.93935c-1.59082,0.75732 -4.49414,4.0155 -6.11572,5.42279c-1.78857,1.55359 -4.5,3.16152 -5.90479,4.5896c0.11426,6.83959 1.35205,15.07549 2.20459,21.90468c0.42773,3.43144 0.73389,7.16018 1.5249,10.50961l2.13721,0.0908l0.07764,0.49209c0.0835,0.53603 0.09375,0.95782 0.11279,1.49384l2.28223,-0.50966l1.62451,0.86262l0.1626,-0.18014c0.28125,0.16989 0.14795,0.1611 0.41309,0.14353l-0.09961,0.06005l0.24609,0.11131l-0.06445,-0.28998l0.18164,-0.19771c0.96533,0.94171 1.26855,4.39658 0.71191,5.74103l-0.06592,0.15378l0.38379,0.14792c-0.48486,0.62243 -2.57959,1.69448 -3.47168,1.81897c-0.65186,0.08934 -1.31689,0.03515 -1.94678,-0.15671c-0.80127,-0.24019 -3.44971,-1.84973 -3.94922,-1.22729c0.5376,0.64294 0.72656,0.79818 1.3667,1.32102l0.62402,0.02929c0.07617,0.51699 -0.32812,1.32688 -0.68115,1.66812c-2.66895,2.57175 -2.521,6.37958 0.27979,8.7624c0.25488,0.21675 0.55078,0.16256 0.84668,0.09666c0.27393,-0.43351 0.21533,-0.2065 0.21826,-0.6942c-0.26367,-0.22408 -1.14697,-0.94171 -1.26123,-1.2229c-0.55078,-1.35764 -0.50537,-2.69331 -0.65771,-4.10806c0.30469,-0.47744 0.75,-1.22729 1.13525,-1.62711c2.49902,-2.58786 7.56738,-0.93438 8.2251,2.5366c0.31201,1.64908 -0.17285,3.03748 -0.94482,4.49031l-0.39697,0.09227l-0.48486,-0.07616c-1.69336,0.5287 -3.1084,1.00175 -4.78271,0.10105c-0.76611,0.49355 -0.83203,0.5536 -1.29199,1.3137c-1.50293,-1.25658 -2.65576,-2.38136 -2.9458,-4.40829c-0.41016,-2.85587 0.90527,-4.25012 2.46826,-6.34443c-4.58789,-3.13267 -2.04346,-6.2961 -3.29443,-7.20558c-0.89355,-0.13327 -1.94385,0.24751 -2.7832,0.53895c0.00586,-0.18014 0.03223,-0.09666 -0.08789,-0.24458c-0.20654,0.53895 -0.22852,0.69273 -0.60059,1.11452c-1.0752,-0.65026 -3.25635,-2.0533 -4.5,-1.06473c-1.14697,0.186 -1.73877,0.05272 -2.42285,1.14967c-1.31104,2.0987 -0.79395,4.54303 0.72363,6.23019c0.32959,0.25776 0.71191,0.57703 1.04883,0.81282c-0.2373,0.36467 -0.71484,1.0574 -0.87744,1.42501l-1.36084,-1.23462l-0.70312,-0.75424c-1.26855,0.08494 -2.18555,-0.09959 -3.30601,0.5785c-0.20537,0.12302 -0.36841,0.14499 -0.59927,0.17868c-1.17056,0.47891 -1.3355,0.61804 -2.59951,0.41007c-0.34131,-1.10573 -0.24463,-1.11013 -1.36655,-1.40304c-0.93149,-0.11423 -1.321,-0.22554 -2.11875,-0.66344c-0.4459,0.32074 -0.82793,0.51845 -1.06714,0.99736c-1.22593,-0.66637 -2.10967,-2.12653 -2.43135,-3.4578c-1.59448,1.90831 -2.86055,3.67016 -5.69077,3.32306c0.03867,-0.31634 -0.01904,-0.971 -0.03765,-1.31663c0.09712,-0.00439 0.19395,-0.01025 0.29077,-0.01757c4.20747,-0.34124 5.25029,-5.46716 2.3124,-7.82362c0.29077,-0.51552 0.77329,-1.42794 0.75073,-2.01961c1.84863,0.6239 6.72026,1.73988 8.63877,1.87462c4.55977,0.31781 15.60029,0.66344 19.59053,-1.08816c-0.01758,-2.96425 -0.52881,-5.13617 -0.81592,-8.03452c-0.62842,-6.32978 -1.71094,-12.57901 -2.30566,-18.90191c-0.21973,-2.33229 -0.62695,-5.2138 -0.54492,-7.51548c3.60938,-2.48285 6.52588,-4.43553 9.66504,-7.62254c1.29346,-1.31238 3.00879,-4.07613 4.27295,-4.98591c0.84229,0.01479 2.86523,0.07367 3.5918,-0.11409c3.18164,-0.82234 6.74561,-3.10221 8.50342,-5.93333c1.45459,-2.34196 2.60156,-4.57057 1.99219,-7.38455c-0.31934,-1.47744 -1.19971,-2.54641 -2.42871,-3.3361c-1.37256,-0.14602 -4.31982,0.45914 -5.01855,-0.18981c-0.56982,-1.07293 -0.1875,-2.97933 -0.04248,-4.18978c-0.2168,-0.855 0.04395,-1.67998 0.0249,-2.53792c-0.06738,-2.98797 0.25488,-5.95486 0.33838,-8.92658c0.06738,-2.39293 -0.08789,-4.84414 -0.02637,-7.24337c0.0293,-1.14733 -0.2915,-2.87066 -0.05127,-3.93788c0,-0.04174 0,-0.08363 0,-0.12537c-0.66943,-4.43378 -1.94092,-9.02514 -4.44873,-12.78976c-1.04297,-1.56663 -2.13721,-3.64849 -3.48193,-4.94871c-0.50684,-0.66242 -3.01758,-2.98944 -3.73389,-3.42646c-1.96582,-1.18614 -4.99658,-3.08771 -7.13672,-3.76609c-2.78906,-0.88429 -4.05615,-0.87346 -6.74414,-2.22465c-0.03809,-2.38502 0.55957,-4.59122 0.46143,-6.7255c1.08691,0.78485 0.73389,-0.05726 1.93213,0.38884c1.05176,-0.29379 1.94678,-0.20328 2.99707,0.05917c0.56836,-0.73901 0.57568,-0.83728 0.46436,-1.76522z" fill="#210000"/><path d="M156.00732,47.33336c1.05176,-0.29379 1.94678,-0.20328 2.99707,0.05917c3.65332,0.83802 10.20996,4.13442 13.25537,6.4323c6.08057,4.58609 10.08545,11.14112 12.28857,18.35476c0.67676,2.24413 1.61279,4.87827 1.82227,7.23546c0.66064,7.42629 0.23291,15.05147 -1.43115,22.32823c-0.2373,1.03573 -0.46436,3.28689 -1.05615,4.0631c-0.94775,0.58772 -2.12256,0.36907 -3.25635,0.30287c0.02637,-3.01888 0.49512,-6.28336 0.68994,-9.37736c0.54492,-7.93215 0.32227,-16.17243 -2.14453,-23.79907c-0.87598,-2.71176 -4.33154,-8.69151 -6.25928,-10.77264c-3.73535,-4.03264 -11.4624,-9.07889 -17.1123,-9.32244c-0.08203,-1.90509 0.04541,-3.60396 0.20654,-5.50436z" fill="#834f0c"/><path d="M167.29395,182.59563c1.74609,0.35149 3.96973,0.82747 4.8999,2.47948c1.03271,1.83508 0.65332,4.55914 -1.14551,5.72785c-1.69336,0.5287 -3.1084,1.00175 -4.78271,0.10105c-2.90332,-1.69595 -3.58447,-5.40858 -0.63428,-7.61859c0.36328,-0.27387 1.20996,-0.53163 1.6626,-0.6898z" fill="#634637"/><path d="M168.65332,172.54735l1.62451,0.86262c3.854,2.77386 1.01221,8.47828 -3.68408,7.0767c-1.771,-0.5287 -2.49023,-1.37521 -3.38086,-2.90567c-0.17578,-2.93203 0.13916,-4.04948 3.1582,-4.52399z" fill="#834f0c"/><path d="M137.81499,177.68939l0.05684,-0.12449c0.40767,-0.91241 0.82046,-3.06237 1.85522,-3.23373c2.87007,-0.47744 5.35562,0.01318 6.87305,2.49559c0.09814,2.49999 0.09375,4.69388 -2.96851,5.10981c-0.6082,0.08201 -1.27178,-0.01465 -1.86475,0.06005c-0.93149,-0.11423 -1.321,-0.22554 -2.11875,-0.66344c-1.21128,-1.24194 -1.3377,-2.01668 -1.83311,-3.6438z" fill="#834f0c"/><path d="M179.15918,80.95107c0.89209,3.91049 0.6167,18.96782 -0.28564,22.64574c-0.2168,-0.855 0.04395,-1.67998 0.0249,-2.53792c-0.06738,-2.98797 0.25488,-5.95486 0.33838,-8.92658c0.06738,-2.39293 -0.08789,-4.84414 -0.02637,-7.24337c0.0293,-1.14733 -0.2915,-2.87066 -0.05127,-3.93788z" fill="#8b4d37"/><path d="M145.73291,182.98959c1.74463,-1.34739 1.44727,-1.54949 2.69531,-3.13267c0.42041,0.96221 0.64893,1.50263 1.20996,2.3755c-1.26855,0.08494 -2.18555,-0.09959 -3.30601,0.5785c-0.20537,0.12302 -0.36841,0.14499 -0.59927,0.17868z" fill="#8e5143"/><path d="M150.34131,182.98666c0.23877,-0.89191 0.33691,-0.81575 1.18945,-1.00322c0.32959,0.25776 0.71191,0.57703 1.04883,0.81282c-0.2373,0.36467 -0.71484,1.0574 -0.87744,1.42501z" fill="#010000"/><path d="M178.80176,125.10459c4.2085,1.84768 2.37744,7.98209 -1.5791,8.3595c-3.54639,-0.96763 -3.25049,-4.93831 -1.16602,-7.12474c1.27295,-0.33831 1.70068,-0.44273 2.74512,-1.23476z" fill="#834f0c"/><path d="M135.93691,173.39679l0.15776,-0.00293c0.73008,-0.00586 1.05,-0.08055 1.51772,0.37785c0.07236,0.50527 -0.15117,0.8099 -0.38306,1.28587l-0.47256,0.31195c-0.47505,0.01318 -0.27861,0.08934 -0.61846,-0.20943c-0.25063,-0.64733 -0.19893,-1.07205 -0.20142,-1.76332z" fill="#8e5143"/><path d="M147.63428,174.63287l1.81348,-0.06883l-0.58301,1.59489c-0.38232,0.38664 -0.17578,0.32659 -0.58594,0.35442c-0.32227,-0.31341 -0.49072,-1.33274 -0.64453,-1.88048z" fill="#8d7262"/><path d="M107.53037,102.11761c-0.32695,-1.69346 -0.93281,-3.2286 -1.31748,-4.93275c-2.54634,-11.27688 -1.0125,-24.22687 5.91357,-33.70265c3.28521,-3.51419 6.93135,-6.84794 10.92026,-9.55106c7.49927,-5.08199 16.55962,-9.05004 25.77554,-8.99058c1.86475,0.01201 3.51563,-0.28046 5.32178,-0.00293c-0.85986,-0.00161 -1.82666,-0.15026 -2.49023,0.23755c-0.41309,0.56414 -0.30762,0.76113 -0.5127,1.41739c-1.40625,1.51361 -0.42773,5.33023 -1.26416,7.22697c-0.30908,0.69844 -2.82715,0.63635 -3.46787,0.80492c-3.23394,0.44347 -6.33618,1.06722 -9.42495,2.16285c-1.68062,0.59607 -2.94287,1.3156 -4.69219,1.77826c2.79126,0.12961 4.99116,0.20504 7.02012,2.45429c1.42031,1.60646 2.14146,3.71249 2.00405,5.85205c-0.40898,6.64598 -9.26074,8.24995 -12.96167,3.33229c-2.47544,-3.28952 -1.67139,-5.96013 -0.13975,-9.29945c-1.27031,1.0637 -3.97837,3.26097 -5.01445,4.39877c-5.18276,5.69197 -7.82476,13.81729 -8.57036,21.36983c-0.39302,3.98123 -0.48911,10.97489 0.85195,14.67727c-0.24565,1.08333 -0.29019,1.00395 -1.00796,1.80989c-2.3855,-1.51347 -5.61079,-0.3449 -7.09995,1.91007c-1.20308,1.82161 -1.03608,4.21278 -0.58081,6.23444c0.75967,3.50994 2.89658,5.99704 5.94976,7.84413l0.17065,0.10223c-0.48457,0.71001 -0.53145,1.04935 -1.21479,1.32703c-1.19531,-0.68263 -3.98599,-3.05827 -4.70347,-4.20179c-2.87798,-4.58785 -4.35747,-10.64493 0.53511,-14.259z" fill="#210000"/><path d="M145.27163,47.22059c1.07402,-0.09842 2.22495,-0.05126 3.30894,-0.03368c-0.06445,1.22202 0.19775,3.79304 -0.43799,4.75378c-0.60791,0.91739 -3.24697,0.81356 -4.21216,1.01171c-5.55117,1.13927 -11.32939,2.92851 -16.02861,6.17249c-2.46504,1.70166 -4.51553,3.17734 -6.44971,5.42835c-7.29038,8.48457 -9.06548,19.51951 -8.82671,30.36289c0.02607,1.18365 0.54287,4.46951 0.04907,5.41693c-0.2291,0.4398 -1.35381,0.54803 -1.88364,0.61291c-1.34165,-0.13503 -1.80132,-1.08962 -2.15171,-2.3383c-3.22676,-11.50374 -1.83794,-26.10618 6.24756,-35.33636c7.06582,-8.0663 19.60503,-15.22384 30.38496,-16.05073z" fill="#834f0c"/><path d="M133.06362,60.39436c3.04395,-0.56517 5.97466,1.42911 6.56543,4.46775c0.59077,3.0385 -1.37915,5.98517 -4.41328,6.60131c-3.07031,0.62361 -6.0605,-1.37463 -6.65845,-4.44945c-0.5978,-3.07497 1.42573,-6.04756 4.5063,-6.61962z" fill="#634637"/><path d="M167.49463,59.66076c0.71631,0.43702 3.22705,2.76404 3.73389,3.42646l-0.82178,-0.18951c2.42871,2.54802 2.01563,7.04024 -0.34863,9.50375c-3.104,3.26843 -7.6626,2.73622 -10.59668,-0.3512c-4.20557,-4.42528 -0.85547,-11.09074 4.7124,-12.06642c0.60938,-0.10662 1.14551,-0.08597 1.7417,-0.07103z" fill="#3a0203"/><path d="M167.49463,59.66076c0.71631,0.43702 3.22705,2.76404 3.73389,3.42646l-0.82178,-0.18951c-0.60498,-0.42428 -1.29346,-1.40465 -1.90576,-1.78294c-0.82178,-0.50835 -1.7124,-0.65304 -2.58545,-1.20196z" fill="#553a09"/><path d="M163.69189,61.69927c3.54492,-0.20445 5.75684,1.10661 6.47754,4.81119c0.47607,2.44331 -1.1001,5.99909 -3.87305,6.28175c-1.40918,0.05272 -2.83887,0.16813 -4.10889,-0.55404c-2.7876,-1.58699 -3.49951,-5.19651 -1.98633,-7.92263c0.85693,-1.54539 1.86328,-2.13927 3.49072,-2.61627z" fill="#634637"/><path d="M115.99526,120.37483c1.07769,0.30228 1.97476,0.53075 2.95342,1.0886c0.70693,1.72348 1.13525,2.87213 2.2002,4.41913c-0.68013,0.22481 -0.89487,0.27182 -1.48828,0.71514c-1.30444,-1.41036 -1.83398,-4.18085 -3.56016,-4.4824z" fill="#3a0203"/><path d="M115.48184,101.35063c0.32139,0.67399 1.01382,1.92749 0.09419,2.37711c-0.54404,-0.10252 -0.63955,-0.22539 -1.10215,-0.56722c0.71777,-0.80594 0.7623,-0.72656 1.00796,-1.80989z" fill="#3a0203"/><path d="M149.13721,65.19661c4.00195,-0.33816 7.52197,2.63121 7.86035,6.63265c0.33838,4.00159 -2.63086,7.52031 -6.63281,7.86009c-4.00312,0.33992 -7.52388,-2.62989 -7.86299,-6.6325c-0.33911,-4.00261 2.63188,-7.52207 6.63545,-7.86024z" fill="#3a0203"/><path d="M148.92334,66.83178c1.26709,-0.09564 2.21484,-0.11702 3.37646,0.50293c3.40723,1.81736 3.78809,7.23897 0.79834,9.61184c-0.89648,0.71089 -1.35645,0.80316 -2.44043,1.09944c-1.69482,0.00498 -2.91357,0.0599 -4.33184,-1.0347c-1.19165,-0.93482 -1.96919,-2.29949 -2.16548,-3.80109c-0.38936,-3.08786 1.58672,-6.0089 4.76294,-6.37841z" fill="#834f0c"/><path d="M125.43281,93.56201c-0.56396,-1.14484 -2.06191,-2.14893 -1.98765,-3.13999c0.93574,-0.68819 2.77676,0.00234 3.9772,-0.06049c3.32739,-0.17413 8.89219,-0.94991 11.16519,2.28968c0.92769,1.3222 4.06201,6.68845 4.21948,8.11141c-0.4585,0.89499 -2.34302,0.64396 -3.23643,0.62185c-0.46069,0.00205 -1.62803,0.03046 -2.02192,0.18322c-7.38237,2.86261 -9.74224,-1.42281 -12.11587,-8.00567z" fill="#010000"/><path d="M127.13071,92.98995c0.39888,-0.29642 0.39126,-0.2727 0.8915,-0.36702c0.24478,0.08758 0.45425,0.09739 0.53115,0.36775c0.55049,1.93423 0.20127,3.26624 1.74741,4.85396c0.39082,-0.34695 0.7415,-0.90978 1.04912,-1.34929l1.03359,0.85105c1.53267,0.18863 1.91514,0.36687 3.22793,-0.44464c0.26162,0.77899 0.22837,1.17384 0.88828,1.55594c0.38496,-0.23081 1.07183,-0.7188 1.51816,-0.6671c0.97266,0.11233 1.43833,0.35032 1.38984,1.35412c-0.23906,0.2541 -0.14985,0.19757 -0.44458,0.3657c0.07236,0.86408 0.02432,1.20503 0.60747,1.87404c-0.46069,0.00205 -1.62803,0.03046 -2.02192,0.18322c-7.38237,2.86261 -9.74224,-1.42281 -12.11587,-8.00567c0.80596,-0.01508 1.14595,0.07572 1.6979,-0.57205z" fill="url(#color-8)"/><path d="M125.43281,93.56201c0.80596,-0.01508 1.14595,0.07572 1.6979,-0.57205c1.21787,3.73914 3.11206,9.33431 8.22949,7.56059c1.08589,-0.37639 2.48423,-0.9152 3.60293,-1.04012c0.07236,0.86408 0.02432,1.20503 0.60747,1.87404c-0.46069,0.00205 -1.62803,0.03046 -2.02192,0.18322c-7.38237,2.86261 -9.74224,-1.42281 -12.11587,-8.00567z" fill="#3a0203"/><path d="M131.3499,96.49535l1.03359,0.85105c1.53267,0.18863 1.91514,0.36687 3.22793,-0.44464c0.26162,0.77899 0.22837,1.17384 0.88828,1.55594c-2.33555,1.40187 -4.154,0.98403 -6.19893,-0.61306c0.39082,-0.34695 0.7415,-0.90978 1.04912,-1.34929z" fill="#210000"/><path d="M131.3499,96.49535c-3.22324,-5.15419 3.67163,-4.75656 5.64141,-1.23872c-0.50171,0.78075 -0.67749,1.02343 -1.37988,1.64513c-1.31279,0.81151 -1.69526,0.63327 -3.22793,0.44464z" fill="#634637"/><path d="M157.72852,99.25149c1.74316,-1.73227 4.57324,-4.52692 6.94629,-5.02311c4.06055,-0.84885 6.12891,0.99853 9.20215,2.87711c2.73926,1.42764 2.01416,1.5306 0.43799,3.35338l-0.94775,1.46265c-0.66357,1.03383 -2.57666,2.96542 -3.74268,3.44023c-4.57324,1.86012 -7.49707,-2.14176 -11.74219,-3.71673c-0.71191,-0.31415 -0.72949,-0.2169 -1.0957,-0.76889c-0.00586,-0.81707 0.35742,-1.03251 0.94189,-1.62462z" fill="#010000"/><path d="M168.93604,101.92561c1.58203,-0.88268 1.89258,-2.68891 3.14063,-3.17441l0.16992,0.13371c0.09375,0.85354 -0.30762,1.55286 -0.66504,2.3342c0.38379,0.15363 1.56006,0.55199 1.78564,0.7024c-0.66357,1.03383 -2.57666,2.96542 -3.74268,3.44023c-4.57324,1.86012 -7.49707,-2.14176 -11.74219,-3.71673c0.28125,-0.20328 1.97607,-0.7787 2.40527,-0.93819c0.21533,-0.26889 0.26367,-0.52607 0.36621,-0.85559c0.49219,-0.31122 0.271,-0.25908 0.83643,-0.25996c1.03418,0.58553 1.17334,1.51962 2.5166,2.33435c0.27539,-0.37317 0.28271,-0.39147 0.3457,-0.85588l0.10254,-0.71455c0.54492,0.24927 1.12939,0.40085 1.72705,0.44771c0.8877,0.07074 1.2832,-0.02958 1.9292,-0.59139c0.35449,0.53851 0.33984,0.64279 0.4585,1.29788z" fill="url(#color-9)"/><path d="M157.88232,101.645c0.28125,-0.20328 1.97607,-0.7787 2.40527,-0.93819c3.86572,3.33932 7.59668,5.48269 11.29395,0.5123c0.38379,0.15363 1.56006,0.55199 1.78564,0.7024c-0.66357,1.03383 -2.57666,2.96542 -3.74268,3.44023c-4.57324,1.86012 -7.49707,-2.14176 -11.74219,-3.71673z" fill="#3a0203"/><path d="M168.11133,100.2115c0.35449,0.53851 0.33984,0.64279 0.4585,1.29788l0.36621,0.41622c-1.46924,0.80828 -3.46143,0.79818 -4.9292,0c0.27539,-0.37317 0.28271,-0.39147 0.3457,-0.85588l0.10254,-0.71455c0.54492,0.24927 1.12939,0.40085 1.72705,0.44771c0.8877,0.07074 1.2832,-0.02958 1.9292,-0.59139z" fill="#210000"/><path d="M163.58643,97.8278c1.99072,-2.70693 7.93652,-1.57615 4.5249,2.3837c-0.646,0.5618 -1.0415,0.66212 -1.9292,0.59139c-0.59766,-0.04687 -1.18213,-0.19845 -1.72705,-0.44771c-0.86865,-0.7043 -0.76904,-1.47363 -0.86865,-2.52737z" fill="#634637"/><path d="M157.88232,101.645c-0.71191,-0.31415 -0.72949,-0.2169 -1.0957,-0.76889c-0.00586,-0.81707 0.35742,-1.03251 0.94189,-1.62462l0.24023,0.37273c0.25635,0.05492 2.4126,0.2415 2.68506,0.22701c-0.10254,0.32952 -0.15088,0.5867 -0.36621,0.85559c-0.4292,0.15949 -2.12402,0.73491 -2.40527,0.93819z" fill="#210000"/><path d="M173.87695,97.10548c2.73926,1.42764 2.01416,1.5306 0.43799,3.35338l-0.79395,-1.65963c0.12598,-0.56341 0.24463,-1.128 0.35596,-1.69375z" fill="#210000"/><path d="M167.52979,108.13208c2.85645,0.01479 5.15918,0.86613 6.7793,3.3361c-0.02344,1.61379 -0.02783,3.22787 -0.01611,4.8418c-1.77246,2.81574 -2.15918,3.68363 -5.51074,4.45794c-1.57031,0.26596 -3.57715,-0.14836 -4.84277,-1.15114c-4.09131,-3.24295 -1.24365,-10.93608 3.59033,-11.4847z" fill="#510002"/><path d="M126.52998,107.2409c5.32852,-0.59871 9.39287,4.18978 5.99941,9.11008c-0.53818,0.78031 -2.20518,1.85353 -3.16626,1.95151c-1.69893,0.2355 -3.92637,0.27036 -5.44204,-0.6671c-1.03843,-0.63708 -1.77612,-1.66592 -2.04639,-2.85367c-0.50522,-2.1233 0.19951,-4.81822 1.8498,-6.27955c0.9813,-0.86892 1.58013,-0.99531 2.80547,-1.26127z" fill="#510002"/><path d="M148.34619,118.8353c2.73486,-0.31356 3.17432,0.83069 5.37744,1.91138c0.84668,0.41579 2.77295,0.13108 3.05566,1.51068l-0.2124,0.30507c-1.43262,0.76611 -5.10645,0.61204 -6.79834,0.62112c-2.00684,0.13547 -4.02305,-0.03383 -5.97949,-0.50175c-0.7103,-0.16667 -2.38418,-0.49795 -2.72388,-1.04701c0.45381,-0.94097 1.89302,-0.72627 2.6584,-1.1009c1.92144,-0.94068 2.43179,-1.53514 4.62261,-1.69858z" fill="#3a0203"/><path d="M147.94629,120.25445c1.91309,-0.1838 2.54883,0.22144 4.00488,1.35471l-1.57324,0.21485c-0.98584,0.03588 -3.18311,0.26713 -3.81152,-0.49106l0.09961,-0.31195c0.43945,-0.42648 0.72803,-0.51391 1.28027,-0.76655z" fill="#510002"/><path d="M133.8895,79.6939c1.04253,-0.07015 5.99839,-0.57073 5.16196,1.71733c-0.92783,0.54467 -3.27612,0.24063 -4.45195,0.31136c-1.84189,0.11072 -3.3397,0.60691 -5.06543,1.15568c-1.27778,0.49824 -3.07822,1.44082 -4.24043,0.22949c0.64497,-1.08303 7.10947,-2.99032 8.59585,-3.41386z" fill="#3a0203"/><path d="M152.29102,98.82633c0.49072,0.05419 0.41016,-0.03046 0.7207,0.2374c0.22412,0.95093 -0.79687,3.19828 -0.54346,4.27399c1.22754,5.20281 4.80762,4.26858 -1.0708,8.83694c-0.42187,-0.12493 -0.69727,-0.15378 -0.98291,-0.48213c-0.01904,-0.77065 1.61865,-1.8572 2.37744,-3.12447l0.104,-0.17487c-1.48389,-2.78909 -3.76758,-6.97345 -0.60498,-9.56688z" fill="#3a0203"/><path d="M164.36865,80.07131c2.45068,-0.00351 4.5498,2.64732 6.24463,4.1684c0.92285,0.82967 2.94287,2.72538 2.65869,4.02619l-0.54639,0.24341c-0.04395,-0.01216 -0.54932,-0.15466 -0.55078,-0.15524c-1.40186,-1.43555 -3.39551,-3.43246 -4.90576,-4.62183c-1.16455,-0.91578 -3.40283,-1.44082 -3.66943,-2.67397c0.10107,-0.4918 0.36621,-0.6299 0.76904,-0.98696z" fill="url(#color-10)"/><path d="M146.22305,126.18704c0.9542,0.08099 1.4083,0.32689 2.27109,0.71353c0.67969,-0.18658 1.30078,-0.51069 1.94092,-0.35266c0.43652,0.32367 0.44824,0.54042 0.63721,1.08465c-0.99023,0.44464 -1.69922,0.56385 -2.76123,0.75205c-1.42236,-0.55257 -1.87793,-0.5971 -2.08799,-2.19756z" fill="#510002"/><path d="M122.96895,38.77834c0.52896,-0.44347 2.07964,-1.69009 2.28003,-2.24149c1.56313,-4.30475 1.53896,-10.49276 1.44565,-15.02628c-0.04028,-1.95913 -0.42202,-6.98324 0.2187,-8.43813c0.46216,-0.12011 0.3019,-0.09149 0.8124,0.04779c0.69697,0.58389 0.64717,1.3403 0.8146,2.19018c0.74692,3.79157 2.66719,7.16209 4.30239,10.60729c0.55942,1.17896 0.90586,2.95722 1.3415,4.245c1.65044,1.13883 2.35444,1.41827 4.32437,1.67691c1.03491,-1.66505 2.52246,-2.8011 3.88228,-4.19916c0.88213,-0.90685 1.61909,-2.49662 2.61724,-2.99471c0.90557,-3.54626 2.65986,-6.83666 3.2165,-10.51421c0.0542,-0.35789 0.22412,-0.56997 0.48926,-0.78689c1.7915,1.20497 0.98438,8.35134 1.14404,10.29216c0.16406,1.96674 0.5127,9.75375 3.88037,8.64362c0.62256,-0.20504 3.68994,-2.53543 4.14551,-3.18378c-0.01172,0.01684 0.34863,-1.77679 0.70459,-2.41328c0.93311,-0.54921 1.22168,-1.37975 2.33496,-2.11715c0.23291,0.0763 0.8291,0.21002 0.86279,0.36746c0.32373,1.45239 -0.52002,1.94258 -0.3208,3.78557l-0.75732,2.14747c0.27979,1.47392 0.75879,4.60279 2.08154,5.47859c0.39844,0.26377 0.8833,0.2065 1.32422,0.08612c2.23682,-0.61189 10.92041,-8.02544 13.00781,-10.00566c1.19092,-1.13049 2.24561,-2.7245 3.61377,-3.61539c0.21533,-0.14001 0.42773,-0.27944 0.64746,-0.41286c-0.17432,3.34488 -0.74707,5.02941 -2.16797,8.05224c-0.54932,1.16856 -0.89795,2.56238 -1.35937,3.774c-0.24316,0.73052 -0.87744,1.95693 -1.04883,2.63004c-1.03857,4.09708 -1.51611,7.87254 -1.64355,12.084c0.35889,0.40729 0.81006,0.95269 1.19092,1.32044c2.23535,-1.20196 2.49316,-0.75175 4.56445,-1.33611c0.82031,-0.2314 4.06055,-1.96367 4.92773,-2.47333c0.70459,0.14777 1.54395,1.01567 2.03613,1.5432c-1.24805,2.89351 -2.12402,4.44359 -3.28711,7.58358c0.27539,0.12375 1.62451,0.75102 1.88379,0.69171c4.6875,-1.07132 9.17139,-2.13238 13.87061,-3.31325c1.33154,-0.3345 5.28223,-3.13633 6.76318,-3.19242c0.22705,-0.00849 0.4292,0.4174 0.51855,0.63005c-0.04248,0.97246 -0.52441,1.1876 -0.82031,1.90304c-1.50586,3.64102 -2.16064,4.42572 -5.16943,6.87665c-1.03711,4.00173 -2.90186,2.66694 -2.68213,8.59749c0.69434,0.74531 0.81445,0.80828 1.67871,1.34167c3.79541,0.26215 8.50195,0.16271 12.21973,-0.50996c1.33008,-0.24077 2.99268,-1.2787 4.24365,-1.55213c3.47021,-0.75849 6.29736,-2.39439 9.57422,-3.61055c0.72803,-0.27021 1.39893,-1.06282 2.21338,-0.85456c1.04883,2.33068 -9.1875,12.68607 -10.94678,14.47443c-1.4751,1.49911 -8.27637,9.18932 -4.29199,10.25229c3.11133,1.26186 7.72266,-2.59137 9.38818,-1.89879c0.27686,0.69654 -0.03809,1.31341 -0.32227,1.98915c-2.31299,5.49206 -4.42676,4.31105 -4.12646,10.66294c1.99512,1.60207 2.57666,1.30682 4.99072,1.51537c2.03613,0.17589 3.20947,0.10779 5.16064,-0.45972c0.79395,0.03134 2.21191,0.04174 2.93408,0.20884c-0.72656,1.75131 -4.13086,5.22112 -5.52393,6.68581c-0.49951,2.30432 -1.23926,3.82657 1.91162,4.12402c2.95459,0.279 7.03271,0.90992 9.74854,-0.40714c1.28906,-0.62492 3.24609,-1.85544 4.5498,-2.20576c0.8291,-0.01743 0.99609,-0.13591 1.76367,0.22232c0.42627,0.86086 -0.22852,0.95254 -0.60937,1.64806c-2.3877,1.53909 -5.60596,3.88164 -7.96875,5.43524c-1.82666,1.20196 -4.78857,5.59531 -5.31299,7.64407c-0.38672,1.46133 -0.03809,3.79099 0.81738,5.01755c0.104,0.01626 0.9668,0.13327 0.94043,0.10662c2.52832,2.5719 2.04785,2.8506 5.15332,4.12988c2.3042,0.94917 12.96533,0.7664 13.29932,0.96719c0.39697,2.0861 -2.33936,1.67632 -3.42773,2.11408c-0.83643,0.33611 -1.64502,1.18672 -2.62207,1.65875c-6.16992,2.97992 -8.96484,5.07598 -7.59668,12.15986c2.85205,2.72846 3.51709,2.82951 7.70508,2.82365c0.71631,-0.00146 1.04736,-0.10984 1.74756,0.13913l0.24902,0.27094c-0.05127,0.83919 -0.88477,0.95342 -1.46484,1.42354c-3.19482,2.58932 -4.68604,5.27238 -1.85449,8.91764c0.21826,0.27973 0.40869,1.16285 0.70898,1.45283c0.18018,0.20797 0.79248,0.03076 0.98438,0.14938c1.81787,1.13063 3.55371,2.55125 5.521,3.42265c1.02393,0.40714 3.70752,0.86701 4.87061,1.0369c2.24268,0.32513 8.02441,0.19479 9.79834,1.23462l0.1333,0.24312c-1.48828,2.21733 -9.81885,3.80051 -12.43359,4.94871c-3.16992,1.39132 -6.09229,2.6069 -8.56494,5.06881c-0.07324,7.63909 8.91943,4.23694 9.09961,7.54975c-0.90234,2.7226 -8.74365,3.31428 -6.61816,8.0726c1.97754,4.42587 6.69141,4.71292 10.87646,5.83037c1.11914,0.29877 5.89893,0.15671 5.54736,2.25834c-1.14551,1.4294 -3.95654,1.26098 -5.59424,1.46308c-2.17383,0.26801 -3.1626,0.64294 -5.34521,0.01172c-2.42285,0.74985 -12.20068,2.40186 -11.2998,6.08227c0.24609,1.00761 4.27295,4.62358 5.34082,5.10981l1.18652,0.53895c0.23438,0.65758 -0.14502,1.13649 0.03809,2.33596c-1.125,0.04833 -2.81836,0.07469 -3.89648,0.18453c-0.30762,0.72495 -0.69873,1.17896 -1.52637,1.20093c-2.90479,0.07762 -2.26025,-4.13589 -3.49805,-5.36464l-0.37793,0.01611c-0.33252,0.30463 -0.63867,0.47451 -0.9375,0.81136c-0.30029,-0.4628 -0.34277,-0.57557 -0.76318,-0.91388c-0.60205,-0.01904 -0.60059,0.10398 -1.17773,0.43936c-0.07617,-0.34124 -0.36328,-0.8758 -0.46143,-1.34299c-0.21826,-1.0369 -0.34131,-2.73431 -0.74268,-3.66723c-2.12549,-4.94432 -6.04834,-9.74365 -9.32666,-13.99523c-1.25977,-1.63444 -2.61621,-3.35968 -3.96533,-4.89599c-0.90674,-1.03104 -2.4668,-2.1236 -3.47754,-3.10484c-2.25146,-2.18511 -4.67725,-4.12417 -7.16016,-6.03541c-0.93018,-0.71616 -1.57764,0.27534 -2.01416,-1.65933c-0.62988,-0.49209 -1.13232,-0.8055 -1.80762,-1.22876c0.93018,-0.64587 0.3457,-0.87434 1.10449,-1.31077c-4.43115,-2.87784 -7.35352,-3.79318 -12.23877,-5.63119c-0.4248,0.56532 -0.77197,0.83772 -1.29785,1.2932c-0.00586,0.6693 0.03369,1.19214 -0.1582,1.83362c-1.15869,-0.186 -1.98193,-0.31488 -3.05566,0.37346l-0.34424,-0.03954c-0.36621,-0.42472 -0.30469,-0.63122 -0.41895,-1.24047c0.81738,-0.66344 1.19971,-0.75864 2.18115,-1.10427c-3.8291,-0.80697 -4.80615,-1.31663 -8.81689,-1.23608c0.42773,0.43936 0.68555,0.76742 1.05762,1.2434c-0.63428,0.4174 -0.95361,0.43204 -1.54102,0.73813c-0.96973,-1.2229 -1.94824,-1.46455 -3.37646,-1.87316c-0.94482,0.25776 -1.18652,0.37346 -1.95264,0.91681c-0.58154,-0.64294 -0.48926,-0.74692 -1.20557,-0.93878c-1.30957,1.12331 -1.53369,1.82043 -2.29541,3.33478c-0.78076,-0.79525 -0.23291,-1.75014 -2.10205,-2.87491l-0.07031,0.17282c-0.35889,-0.31341 -0.25195,-0.12302 -0.3457,-0.57703c0.63281,-0.85237 2.77148,-0.36467 3.77051,-0.45401c0.15234,-0.01318 0.08936,-0.43644 0.7251,-0.49941c0.18018,0.31488 0.12891,0.13767 0.03223,0.57703c0.375,0.06298 0.79248,0.09666 1.11475,0.2768c0.35596,-0.23286 0.24023,-0.08055 0.39111,-0.44376c-0.29004,-0.36028 -0.38379,-0.40129 -0.75586,-0.65172l-0.14209,-0.32074l-0.40723,0.35589l-0.20215,-0.05126c-0.2417,-0.6693 -0.45703,-0.54188 -0.61377,-0.95049c-1.03271,-0.12888 -5.44482,-0.11277 -6.07471,0.71177c0.62256,0.86848 0.64014,0.17721 1.11182,1.32542l-0.104,0.15524c-0.40723,-0.10984 -0.65625,-0.19186 -1.05176,-0.34124c0.38086,0.6444 0.45703,0.57117 1.06641,0.91388l0.15967,0.08934l-0.1626,0.18014l-1.62451,-0.86262l-2.28223,0.50966c-0.01904,-0.53603 -0.0293,-0.95782 -0.11279,-1.49384l-0.07764,-0.49209l-2.13721,-0.0908c-0.79102,-3.34942 -1.09717,-7.07817 -1.5249,-10.50961c-0.85254,-6.82919 -2.09033,-15.06509 -2.20459,-21.90468c1.40479,-1.42808 4.11621,-3.03601 5.90479,-4.5896c1.62158,-1.40729 4.5249,-4.66547 6.11572,-5.42279c0.04541,1.42135 0.01318,2.6624 0.7002,3.93935c0.64893,1.21279 1.77393,2.09885 3.10547,2.44375c4.39453,1.1504 7.41797,-2.66284 7.11621,-6.8021c-0.10107,-1.40128 -0.62402,-2.47802 -1.35791,-3.65727c2.73193,-2.73461 4.95557,-4.5672 6.21826,-8.39626c1.48682,-4.50481 -1.54395,-7.24234 -1.61133,-10.23134c-0.04541,-1.99882 1.3374,-7.82948 1.61133,-10.13278c0.65771,-5.54888 0.86865,-11.97943 0.04102,-17.52685c-0.57129,-3.54362 -1.94678,-6.76314 -3.14062,-10.03348c-1.37842,-3.78117 -2.06689,-4.71424 -4.25391,-7.90871c-5.31299,-7.75962 -12.45557,-11.97533 -21.29443,-14.6206c0.11133,0.92794 0.104,1.02621 -0.46436,1.76522c-1.05029,-0.26245 -1.94531,-0.35296 -2.99707,-0.05917c-1.19824,-0.4461 -0.84521,0.39601 -1.93213,-0.38884c-0.91113,-0.53397 -1.85889,-0.37741 -2.93408,-0.35193c0.20508,-0.65626 0.09961,-0.85325 0.5127,-1.41739c0.66357,-0.38781 1.63037,-0.23916 2.49023,-0.23755c-1.80615,-0.27753 -3.45703,0.01494 -5.32178,0.00293c-9.21592,-0.05946 -18.27627,3.90859 -25.77554,8.99058c-3.98892,2.70312 -7.63506,6.03687 -10.92026,9.55106c-6.92607,9.47578 -8.45991,22.42577 -5.91357,33.70265c0.38467,1.70415 0.99053,3.23929 1.31748,4.93275c-4.89258,3.61407 -3.41309,9.67115 -0.53511,14.259c0.71748,1.14352 3.50815,3.51917 4.70347,4.20179c0.68335,-0.27768 0.73022,-0.61701 1.21479,-1.32703c1.25815,0.55506 1.80352,0.721 3.08174,1.12346l0.10518,1.74047c1.72617,0.30155 2.25571,3.07204 3.56016,4.4824c0.59341,-0.44332 0.80815,-0.49033 1.48828,-0.71514c2.70029,3.09445 4.13496,4.67865 7.29434,7.38645c1.50923,1.29334 7.58086,5.73547 8.34946,6.86595c-0.77446,8.47432 -1.74097,16.99654 -2.75713,25.44406c-0.16699,1.38693 -0.35215,2.64791 -0.43037,4.05534c-0.63882,-0.13034 -1.29976,-0.00879 -1.95937,0.05858c0.01436,0.53163 0.10884,0.71909 -0.1311,1.12477c-2.32441,0.41886 -8.73896,0.16403 -11.43721,0.2314c0.4604,1.78529 -0.07573,0.95342 -0.51416,2.22319l0.74209,0.6195c0.73477,-0.24019 1.148,-0.00293 1.45342,-0.79525c2.06777,1.76918 1.53633,5.72199 0.39609,7.90271l0.13564,0.35003l-0.68379,0.65612l-0.42773,0.32659l-0.35303,-0.23872c-2.56582,1.66519 -3.75718,1.28441 -6.44048,0.35881c-0.68027,0.71763 -2.23096,0.56678 -3.26982,0.75717c-0.32505,0.01904 -0.65317,0.01904 -0.9791,0.02343c-0.35186,-0.32952 -0.25811,-0.50673 -0.31992,-1.09402c-0.14004,-0.13327 -0.16685,-0.10252 -0.3876,-0.16256c-0.48486,0.1816 -0.67061,0.2519 -1.18228,0.33685l-0.10972,0.01757c-0.66577,2.45166 -1.27808,3.28498 -3.87861,3.59254c-1.06846,0.19918 -2.05488,-0.04687 -2.92222,-0.6898c-1.11782,-0.96953 -1.59097,-1.40597 -2.21045,-2.73724l-0.13184,-0.28559c-0.0958,0.37053 -0.13359,0.22115 -0.01406,0.49648c-0.13213,0.33392 -0.32842,0.4174 -0.62666,0.6239l-0.34424,0.01172c-0.49277,-0.53163 -0.46538,-1.05008 -0.50991,-1.80432c-0.21694,0.22847 -0.15835,0.29584 -0.21943,0.67516c-0.13828,-1.72963 -0.14414,-3.20151 0.76553,-4.69388c-1.65381,0.24019 -8.84282,2.62008 -9.4377,4.07731l-0.10898,0.39836c-2.63643,1.39132 -5.22158,2.25248 -7.68662,4.11245c-1.12485,0.84944 -2.98477,1.49238 -4.14785,2.41797c-2.50181,1.87755 -4.87808,4.00701 -7.26079,6.05445c-2.56641,2.20415 -4.90854,4.97947 -7.13452,7.50728c-2.08711,2.36964 -3.92476,4.59869 -5.53638,7.32568c-0.75088,1.27123 -1.86562,2.41651 -2.30215,3.85469c-0.36431,1.04715 -0.2792,2.96132 -1.39673,3.37579c-1.05981,0.32952 -0.83086,1.71645 -1.2731,2.53514c-0.61274,1.13649 -1.85215,1.51141 -1.5145,2.99793c0.22178,0.97685 -0.31787,0.86408 0.76963,1.23754c-0.38262,0.07323 -0.74063,0.08641 -1.12822,0.11277c-0.42056,0.03661 -0.69668,0.03954 -1.10244,0.17428c0.11499,-1.14967 1.0144,-5.90506 1.56504,-6.961c0.21826,-0.42033 2.36221,-1.8468 2.57842,-3.23373c0.15454,-0.9915 0.2209,-2.05037 -0.26045,-2.9496c-1.98325,0.2065 -4.61455,-0.11277 -6.61787,-0.20211c-1.91411,-0.08494 -3.82588,-0.09812 -5.74146,-0.12156c0.04189,-0.14353 0.26133,-0.86116 0.3501,-0.92999c3.04307,-2.355 7.46118,-3.77268 10.94502,-5.54771c0.91758,-0.50088 1.59272,-1.73842 2.69824,-1.85412c2.06528,-0.21382 1.13584,-2.36232 0.65713,-3.59547c-2.40732,0.00732 -4.60298,-0.12888 -7.00005,-0.33978c-1.20879,-0.10545 -2.73647,-0.0249 -3.89282,-0.3017c-0.23276,-1.32395 5.16841,-3.68188 6.24873,-4.55475c0.20332,-0.16403 2.83447,-0.55946 3.33589,-0.64733c0.4481,-0.59021 1.16689,-1.88048 1.57163,-2.5615c-0.25298,-1.67984 -0.36973,-2.5366 -1.57017,-3.80051c-1.63154,-0.6195 -4.82915,-0.55214 -6.72729,-0.82161c-2.29219,-0.32659 -3.05684,-0.56092 -5.16475,-1.40304c1.05352,-0.60779 2.14834,-0.90216 3.17241,-1.44697c2.88267,-1.53045 5.29878,-2.45605 7.84629,-4.54303c-3.42026,-2.0079 -9.66987,-3.57936 -13.71812,-3.98211c-1.42764,-0.14206 -4.846,0.17721 -5.74453,-0.68834l-0.00264,-0.18453c4.17114,-3.28206 7.2939,-3.11363 11.86772,-4.58258l0.21431,-0.0703c1.15957,-0.30463 2.94229,-0.74985 3.17944,-2.03865c-0.5127,-1.62272 -3.89854,-2.15142 -5.40659,-2.23783c-0.98994,0.01172 -3.30366,-0.84944 -3.52192,-1.9171c0.86982,-1.58464 6.78296,-1.12624 8.14146,-2.02694c1.29946,-1.97568 -3.64131,-5.25041 -4.83442,-6.65784c-0.80771,-0.95342 -4.40669,-2.37257 -4.24761,-3.72435c1.19663,-0.72056 8.69692,0.3017 10.53105,-0.74546c0.91611,-0.52431 1.8189,-2.72333 2.12139,-3.69462c-1.21318,-2.89527 -2.48965,-3.24749 -4.30298,-5.44578c-0.23159,-0.28075 -0.15176,-0.3761 -0.09434,-0.65392c1.31382,-1.41388 6.40181,1.03968 7.97886,0.24399c1.11357,-0.5618 1.80615,-4.37871 2.07583,-5.68787c-1.01865,-3.1892 -2.39399,-3.7037 -3.37471,-7.26124c-2.44131,-1.27782 -5.16035,-3.88486 -7.56021,-5.49177c-0.74487,-0.49868 -5.1019,-4.8645 -5.12812,-5.54156c1.41416,-1.33098 4.96919,0.87961 6.40825,1.13268c4.71563,0.81531 9.38423,1.77284 14.19814,1.31809c4.19707,-0.6693 3.63179,-2.25248 2.85571,-5.33111c-1.34458,-5.33345 -5.51777,-7.38748 -8.16431,-11.53318l0.06182,-0.23257c0.94482,-0.73154 2.6688,0.46016 3.73418,0.86687c3.35991,1.28309 6.46436,1.33567 9.97734,1.37843c0.25063,-0.85544 1.30723,-2.99559 0.81958,-3.78615c-1.61074,-2.61144 -4.13833,-4.85249 -6.27217,-7.05459c-0.75015,-0.77416 -1.42529,-1.82805 -2.19375,-2.5202c-1.10669,-0.99663 -2.34053,-0.96426 -3.05845,-2.48417l0.08188,-0.21617c2.17207,-0.99882 13.69541,3.31061 16.27324,3.00526c0.84375,-0.09988 1.84424,-1.29832 2.3105,-2.01405l0.08247,-0.12947c-0.01318,-0.60867 0.11191,-3.65054 -0.04453,-4.12022c-1.60049,-4.76096 -3.53862,-9.59031 -6.44312,-13.72459c-1.01016,-1.43789 -5.37759,-4.66605 -4.4376,-6.5398c4.28906,-0.34417 10.12778,5.74543 14.27183,6.99205c1.99351,0.59959 2.86465,2.28953 5.3877,2.55037c2.47383,0.25571 3.27759,0.53266 5.47368,-0.97744c0.19424,-1.46704 0.66343,-1.83039 0.90381,-2.72304c1.28789,-4.78336 -3.89399,-13.03932 -6.00073,-17.07694c-0.03545,-0.3427 -0.1916,-1.00234 -0.11558,-1.29027c0.63413,-2.40069 3.55693,-0.23125 5.05898,0.14382l0.19189,0.04657c1.21377,0.53676 2.67773,1.83391 3.99243,2.46689c3.13813,1.51112 6.08057,2.11832 7.90723,-1.58245c-0.03398,-2.18774 -0.61992,-4.19418 -1.23003,-6.27384c-0.23496,-0.80067 -0.54126,-1.74662 -0.4957,-2.57907c0.26807,-0.25556 0.47476,-0.32454 0.84609,-0.36409c0.98057,-0.10428 4.53574,3.16284 5.51997,3.82863c0.63369,0.42867 1.40508,0.58699 1.97974,1.10193c0.19087,0.17091 0.26924,0.26918 0.53042,0.32659c3.53789,-3.15244 0.95391,-8.83284 1.00313,-12.60113l0.00366,-0.19596c-0.5855,-0.8698 -1.68354,-2.36627 -1.02861,-3.46249c1.56445,-0.66227 3.45981,2.20092 4.52168,2.99866c1.74302,1.3096 2.49463,1.68745 3.76406,3.52663c1.10215,0.09051 2.2418,0.26245 3.34131,0.41095z" fill="#553a09"/><path d="M52.66787,210.5568c0.9186,-3.04919 7.81641,-11.24042 10.3396,-13.67743c2.58193,-2.49266 7.48828,-7.0562 10.40654,-9.14025c11.45068,-8.03891 24.54917,-13.42845 38.34346,-15.7732c3.76157,-0.63415 4.25156,-0.88752 8.32002,-0.91681c0.4604,1.78529 -0.07573,0.95342 -0.51416,2.22319l0.74209,0.6195c0.73477,-0.24019 1.148,-0.00293 1.45342,-0.79525c2.06777,1.76918 1.53633,5.72199 0.39609,7.90271l0.13564,0.35003l-0.68379,0.65612l-0.42773,0.32659l-0.35303,-0.23872c-2.56582,1.66519 -3.75718,1.28441 -6.44048,0.35881c-0.68027,0.71763 -2.23096,0.56678 -3.26982,0.75717c-0.32505,0.01904 -0.65317,0.01904 -0.9791,0.02343c-0.35186,-0.32952 -0.25811,-0.50673 -0.31992,-1.09402c-0.14004,-0.13327 -0.16685,-0.10252 -0.3876,-0.16256c-0.48486,0.1816 -0.67061,0.2519 -1.18228,0.33685l-0.10972,0.01757c-0.66577,2.45166 -1.27808,3.28498 -3.87861,3.59254c-1.06846,0.19918 -2.05488,-0.04687 -2.92222,-0.6898c-1.11782,-0.96953 -1.59097,-1.40597 -2.21045,-2.73724l-0.13184,-0.28559c-0.0958,0.37053 -0.13359,0.22115 -0.01406,0.49648c-0.13213,0.33392 -0.32842,0.4174 -0.62666,0.6239l-0.34424,0.01172c-0.49277,-0.53163 -0.46538,-1.05008 -0.50991,-1.80432c-0.21694,0.22847 -0.15835,0.29584 -0.21943,0.67516c-0.13828,-1.72963 -0.14414,-3.20151 0.76553,-4.69388c-1.65381,0.24019 -8.84282,2.62008 -9.4377,4.07731l-0.10898,0.39836c-2.63643,1.39132 -5.22158,2.25248 -7.68662,4.11245c-1.12485,0.84944 -2.98477,1.49238 -4.14785,2.41797c-2.50181,1.87755 -4.87808,4.00701 -7.26079,6.05445c-2.56641,2.20415 -4.90854,4.97947 -7.13452,7.50728c-2.08711,2.36964 -3.92476,4.59869 -5.53638,7.32568c-0.75088,1.27123 -1.86562,2.41651 -2.30215,3.85469c-0.36431,1.04715 -0.2792,2.96132 -1.39673,3.37579c-1.05981,0.32952 -0.83086,1.71645 -1.2731,2.53514c-0.61274,1.13649 -1.85215,1.51141 -1.5145,2.99793c0.22178,0.97685 -0.31787,0.86408 0.76963,1.23754c-0.38262,0.07323 -0.74063,0.08641 -1.12822,0.11277c-0.42056,0.03661 -0.69668,0.03954 -1.10244,0.17428c0.11499,-1.14967 1.0144,-5.90506 1.56504,-6.961c0.21826,-0.42033 2.36221,-1.8468 2.57842,-3.23373c0.15454,-0.9915 0.2209,-2.05037 -0.26045,-2.9496z" fill="url(#color-11)"/><path d="M98.99399,182.21045c0.08071,-1.68863 -0.04204,-3.71556 1.26899,-4.94432c0.93516,-0.87727 2.15244,-1.07205 3.38511,-1.00175c3.06196,0.14792 4.12412,3.54275 4.48901,6.06616c-0.66577,2.45166 -1.27808,3.28498 -3.87861,3.59254c-1.06846,0.19918 -2.05488,-0.04687 -2.92222,-0.6898c-1.11782,-0.96953 -1.59097,-1.40597 -2.21045,-2.73724z" fill="#834f0c"/><path d="M101.33628,185.23328c0.56895,-0.56678 1.12896,-1.21704 1.96802,-1.22583c0.54434,0.46133 0.53086,0.77621 0.54873,1.48505c0.20933,0.3427 0.0917,0.25923 0.40547,0.43058c-1.06846,0.19918 -2.05488,-0.04687 -2.92222,-0.6898z" fill="#553a09"/><path d="M120.30542,173.89181c0.7793,1.08523 1.16221,2.11774 1.09731,3.46952c-0.26616,4.7012 -5.87065,5.5565 -8.51426,2.21586c-1.07505,-1.06912 -1.33477,-5.05709 0.07397,-5.86991c1.09102,-0.62829 5.33599,-0.68834 6.60088,-0.43497z" fill="#634637"/><path d="M106.20762,174.81887c1.11929,-0.26948 3.07588,-0.95489 4.0062,-0.186c0.04365,0.72349 -0.14385,1.35617 -0.14575,2.06062c-0.00718,2.64791 1.90679,4.90917 4.31748,5.75861c-0.68027,0.71763 -2.23096,0.56678 -3.26982,0.75717c-0.32505,0.01904 -0.65317,0.01904 -0.9791,0.02343c-0.35186,-0.32952 -0.25811,-0.50673 -0.31992,-1.09402c0.43345,-3.14585 -2.02046,-5.01755 -3.60908,-7.31982z" fill="#8d7262"/><path d="M120.82603,182.09329c0.13711,-0.186 1.08574,-0.90216 1.32891,-1.09402l0.13564,0.35003l-0.68379,0.65612l-0.42773,0.32659z" fill="#634637"/><path d="M112.91353,119.25138c1.25815,0.55506 1.80352,0.721 3.08174,1.12346l0.10518,1.74047c1.72617,0.30155 2.25571,3.07204 3.56016,4.4824c0.59341,-0.44332 0.80815,-0.49033 1.48828,-0.71514c2.70029,3.09445 4.13496,4.67865 7.29434,7.38645c1.50923,1.29334 7.58086,5.73547 8.34946,6.86595c-0.77446,8.47432 -1.74097,16.99654 -2.75713,25.44406c-0.16699,1.38693 -0.35215,2.64791 -0.43037,4.05534c-0.63882,-0.13034 -1.29976,-0.00879 -1.95937,0.05858c0.16494,-1.95957 0.77095,-5.0483 1.05776,-7.10599c0.66753,-4.78761 1.01851,-9.1754 1.32173,-13.98352c0.19614,-3.10924 0.60293,-5.00041 0.42979,-8.26006c-2.6376,-1.99867 -5.13911,-4.28073 -7.82095,-6.25289c-1.53516,-1.12887 -3.04937,-3.10382 -4.75327,-4.03439c-1.7042,-0.15202 -3.64058,3.646 -7.25815,2.1586c-1.27764,-0.52621 -2.28779,-1.5473 -2.7999,-2.83039c-1.08267,-2.74486 -0.06812,-5.39569 0.98408,-7.8929l-1.10815,-0.913c0.68335,-0.27768 0.73022,-0.61701 1.21479,-1.32703z" fill="url(#color-12)"/><path d="M116.10044,122.1153c1.72617,0.30155 2.25571,3.07204 3.56016,4.4824c-0.36343,1.81135 -0.76304,3.00775 -2.29702,4.10162c-0.75659,0.07308 -1.53281,0.05243 -2.29497,0.05185c-2.12358,-2.05257 -2.3915,-5.0505 -0.64775,-7.52295c0.46172,-0.65451 0.94922,-0.85105 1.67959,-1.11291z" fill="#834f0c"/><path d="M207.40137,178.14633c3.0835,1.53778 4.83984,2.7182 7.50293,4.86816c11.625,9.37897 21.33984,21.30626 25.2832,35.95176c1.1001,0.09227 2.24561,0.20943 3.3457,0.2314c-0.30762,0.72495 -0.69873,1.17896 -1.52637,1.20093c-2.90479,0.07762 -2.26025,-4.13589 -3.49805,-5.36464l-0.37793,0.01611c-0.33252,0.30463 -0.63867,0.47451 -0.9375,0.81136c-0.30029,-0.4628 -0.34277,-0.57557 -0.76318,-0.91388c-0.60205,-0.01904 -0.60059,0.10398 -1.17773,0.43936c-0.07617,-0.34124 -0.36328,-0.8758 -0.46143,-1.34299c-0.21826,-1.0369 -0.34131,-2.73431 -0.74268,-3.66723c-2.12549,-4.94432 -6.04834,-9.74365 -9.32666,-13.99523c-1.25977,-1.63444 -2.61621,-3.35968 -3.96533,-4.89599c-0.90674,-1.03104 -2.4668,-2.1236 -3.47754,-3.10484c-2.25146,-2.18511 -4.67725,-4.12417 -7.16016,-6.03541c-0.93018,-0.71616 -1.57764,0.27534 -2.01416,-1.65933c-0.62988,-0.49209 -1.13232,-0.8055 -1.80762,-1.22876c0.93018,-0.64587 0.3457,-0.87434 1.10449,-1.31077z" fill="#210000"/><path d="M166.18066,171.07109c1.74463,0.01172 3.46436,-0.80111 5.3584,-0.84651c6.12451,-0.14499 12.19629,-0.09227 18.24463,1.00615c1.76367,0.31781 3.54785,0.93292 5.37891,1.28441c-0.4248,0.56532 -0.77197,0.83772 -1.29785,1.2932c-0.00586,0.6693 0.03369,1.19214 -0.1582,1.83362c-1.15869,-0.186 -1.98193,-0.31488 -3.05566,0.37346l-0.34424,-0.03954c-0.36621,-0.42472 -0.30469,-0.63122 -0.41895,-1.24047c0.81738,-0.66344 1.19971,-0.75864 2.18115,-1.10427c-3.8291,-0.80697 -4.80615,-1.31663 -8.81689,-1.23608c0.42773,0.43936 0.68555,0.76742 1.05762,1.2434c-0.63428,0.4174 -0.95361,0.43204 -1.54102,0.73813c-0.96973,-1.2229 -1.94824,-1.46455 -3.37646,-1.87316c-0.94482,0.25776 -1.18652,0.37346 -1.95264,0.91681c-0.58154,-0.64294 -0.48926,-0.74692 -1.20557,-0.93878c-1.30957,1.12331 -1.53369,1.82043 -2.29541,3.33478c-0.78076,-0.79525 -0.23291,-1.75014 -2.10205,-2.87491l-0.07031,0.17282c-0.35889,-0.31341 -0.25195,-0.12302 -0.3457,-0.57703c0.63281,-0.85237 2.77148,-0.36467 3.77051,-0.45401c0.15234,-0.01318 0.08936,-0.43644 0.7251,-0.49941c0.18018,0.31488 0.12891,0.13767 0.03223,0.57703c0.375,0.06298 0.79248,0.09666 1.11475,0.2768c0.35596,-0.23286 0.24023,-0.08055 0.39111,-0.44376c-0.29004,-0.36028 -0.38379,-0.40129 -0.75586,-0.65172l-0.14209,-0.32074l-0.40723,0.35589l-0.20215,-0.05126c-0.2417,-0.6693 -0.45703,-0.54188 -0.61377,-0.95049c-1.03271,-0.12888 -5.44482,-0.11277 -6.07471,0.71177c0.62256,0.86848 0.64014,0.17721 1.11182,1.32542l-0.104,0.15524c-0.40723,-0.10984 -0.65625,-0.19186 -1.05176,-0.34124c0.38086,0.6444 0.45703,0.57117 1.06641,0.91388l0.15967,0.08934l-0.1626,0.18014l-1.62451,-0.86262l-2.28223,0.50966c-0.01904,-0.53603 -0.0293,-0.95782 -0.11279,-1.49384z" fill="#010000"/><path d="M171.83643,172.94132c-0.0835,-0.26801 -0.06299,-0.13034 -0.00146,-0.4174c1.01953,-0.51992 3.29443,-0.30756 4.39893,-0.04247c-1.30957,1.12331 -1.53369,1.82043 -2.29541,3.33478c-0.78076,-0.79525 -0.23291,-1.75014 -2.10205,-2.87491z" fill="#8d7262"/><path d="M154.14404,44.93765c2.05957,0.06708 3.28418,0.15993 5.32471,0.68966c0.11133,0.92794 0.104,1.02621 -0.46436,1.76522c-1.05029,-0.26245 -1.94531,-0.35296 -2.99707,-0.05917c-1.19824,-0.4461 -0.84521,0.39601 -1.93213,-0.38884c-0.91113,-0.53397 -1.85889,-0.37741 -2.93408,-0.35193c0.20508,-0.65626 0.09961,-0.85325 0.5127,-1.41739c0.66357,-0.38781 1.63037,-0.23916 2.49023,-0.23755z" fill="#010000"/><path d="M228.74121,99.11895c0.52295,-0.09358 0.95068,-0.17165 1.48389,-0.22408c0.40576,-1.78382 2.92383,-2.01654 4.28027,-1.29583c0.51563,1.59182 -2.10645,0.82059 -2.83008,1.72875c-0.72217,-0.16711 -2.14014,-0.1775 -2.93408,-0.20884z" fill="#010000"/><path d="M87.17827,52.27694c-0.55195,-0.96162 -2.14775,-2.31765 -1.5583,-3.4663c1.37124,-0.53837 5.39077,1.56267 6.6936,2.36642l-0.19189,-0.04657c-1.50205,-0.37507 -4.42485,-2.54451 -5.05898,-0.14382c-0.07603,0.28793 0.08013,0.94756 0.11558,1.29027z" fill="#2e2817"/><path d="M43.16851,164.1013c1.50806,0.08641 4.8939,0.61511 5.40659,2.23783c-0.23716,1.2888 -2.01987,1.73403 -3.17944,2.03865c0.68672,-0.71031 2.23154,-1.18336 3.2168,-1.66519c-0.42773,-0.63561 -0.99946,-1.29027 -1.6979,-1.63151c-0.90894,0.10105 -0.45835,0.7352 -1.38838,1.25073c-1.25288,-0.23286 -1.33784,-1.41183 -2.35767,-2.23051z" fill="#2e2817"/><path d="M158.58838,26.68336c0.54346,-0.90919 0.97559,-1.38429 1.85156,-1.99545c0.52881,-0.36907 0.89502,-0.96485 1.35059,-1.45137l0.27393,-0.05917c0.62549,0.77753 -0.36182,4.46878 -0.59912,5.54185c-0.19922,-1.84299 0.64453,-2.33317 0.3208,-3.78557c-0.03369,-0.15744 -0.62988,-0.29115 -0.86279,-0.36746c-1.11328,0.7374 -1.40186,1.56795 -2.33496,2.11715z" fill="#2e2817"/><path d="M188.24561,45.29763c-0.11426,0.87521 -0.21973,1.83113 -0.36328,2.69433c-0.49219,-0.52753 -1.33154,-1.39542 -2.03613,-1.5432c0.67676,-0.48521 1.61572,-0.82718 2.39941,-1.15114z" fill="#2e2817"/><path d="M242.36133,107.52473c0.84375,-0.40041 2.12842,-0.74912 2.92236,-0.10384c0.19043,0.94961 -0.99902,1.59211 -1.76807,1.97421c0.38086,-0.69551 1.03564,-0.7872 0.60938,-1.64806c-0.76758,-0.35823 -0.93457,-0.23975 -1.76367,-0.22232z" fill="#010000"/></g></svg></svg>